M48
;Layer_Color=9474304
;FILE_FORMAT=4:2
METRIC,TZ
;TYPE=PLATED
T1F00S00C0.76
T2F00S00C0.80
T3F00S00C0.90
T4F00S00C1.20
T5F00S00C2.00
%
T01
X5283Y7938
T02
X5855Y8107
Y9627
X8204Y9576
X8204Y9830
X8204Y10084
X8204Y10338
Y9322
Y9068
X8655Y8867
Y8107
T03
X5321Y9030
X5321Y9538
X5283Y10008
X5283Y10516
T04
X6094Y10179
X6082Y11258
X5744Y10929
X7844
X7832Y11258
Y11633
X7844Y10554
Y10179
X7832Y12008
X5732
T05
X5296Y7938
X5271Y8649
X5283Y10770
X5296Y11303
X5309Y12001
M30
