G04 Layer_Physical_Order=2*
G04 Layer_Color=16711680*
%FSLAX44Y44*%
%MOMM*%
G71*
G01*
G75*
%ADD10R,1.8000X1.3000*%
G04:AMPARAMS|DCode=11|XSize=2.2mm|YSize=3.8mm|CornerRadius=0.55mm|HoleSize=0mm|Usage=FLASHONLY|Rotation=90.000|XOffset=0mm|YOffset=0mm|HoleType=Round|Shape=RoundedRectangle|*
%AMROUNDEDRECTD11*
21,1,2.2000,2.7000,0,0,90.0*
21,1,1.1000,3.8000,0,0,90.0*
1,1,1.1000,1.3500,0.5500*
1,1,1.1000,1.3500,-0.5500*
1,1,1.1000,-1.3500,-0.5500*
1,1,1.1000,-1.3500,0.5500*
%
%ADD11ROUNDEDRECTD11*%
%ADD12R,2.2000X0.6000*%
%ADD13O,2.2000X0.6000*%
%ADD14R,1.6500X1.6000*%
%ADD15R,1.6000X1.6500*%
G04:AMPARAMS|DCode=16|XSize=3mm|YSize=3mm|CornerRadius=0.3mm|HoleSize=0mm|Usage=FLASHONLY|Rotation=180.000|XOffset=0mm|YOffset=0mm|HoleType=Round|Shape=RoundedRectangle|*
%AMROUNDEDRECTD16*
21,1,3.0000,2.4000,0,0,180.0*
21,1,2.4000,3.0000,0,0,180.0*
1,1,0.6000,-1.2000,1.2000*
1,1,0.6000,1.2000,1.2000*
1,1,0.6000,1.2000,-1.2000*
1,1,0.6000,-1.2000,-1.2000*
%
%ADD16ROUNDEDRECTD16*%
%ADD17C,0.2540*%
%ADD18C,0.8000*%
%ADD19C,2.0000*%
%ADD20C,3.0000*%
%ADD21C,1.0000*%
G04:AMPARAMS|DCode=22|XSize=0.6mm|YSize=1.2mm|CornerRadius=0mm|HoleSize=0mm|Usage=FLASHONLY|Rotation=270.000|XOffset=0mm|YOffset=0mm|HoleType=Round|Shape=Octagon|*
%AMOCTAGOND22*
4,1,8,0.6000,0.1500,0.6000,-0.1500,0.4500,-0.3000,-0.4500,-0.3000,-0.6000,-0.1500,-0.6000,0.1500,-0.4500,0.3000,0.4500,0.3000,0.6000,0.1500,0.0*
%
%ADD22OCTAGOND22*%

%ADD23R,1.1000X0.6000*%
%ADD24R,1.0000X1.0500*%
%ADD25R,1.0500X1.0000*%
%ADD26R,0.9000X0.9500*%
%ADD27R,0.9500X0.9000*%
%ADD28R,2.2000X1.7000*%
%ADD29R,1.3000X1.8000*%
%ADD30C,0.6000*%
%ADD31C,0.3000*%
%ADD32C,2.3000*%
%ADD33C,2.0000*%
%ADD34C,1.2700*%
%ADD35O,1.6000X2.0000*%
%ADD36R,1.6000X2.0000*%
%ADD37C,1.5240*%
%ADD38C,0.8000*%
G36*
X75000Y905000D02*
Y884000D01*
X80000Y879000D01*
Y793000D01*
X129000D01*
X130000Y792000D01*
Y771000D01*
X127000Y768000D01*
X50000D01*
X45000Y773000D01*
X44000D01*
Y785000D01*
X46000Y787800D01*
Y872000D01*
X41000Y877000D01*
Y906000D01*
X46000Y911000D01*
X69000D01*
X75000Y905000D01*
D02*
G37*
G36*
X128000Y923000D02*
X128250Y906750D01*
X128000Y894000D01*
X129500Y893000D01*
Y881000D01*
Y857000D01*
X128000Y855500D01*
X127500Y856000D01*
X90000D01*
Y879000D01*
X94000Y884000D01*
Y937000D01*
X96000Y939000D01*
X126000D01*
X128000Y923000D01*
D02*
G37*
G36*
X35000Y983000D02*
Y981000D01*
Y928000D01*
Y927000D01*
X34000Y926000D01*
X2000D01*
Y951000D01*
X3000Y952000D01*
Y984000D01*
X35000D01*
Y983000D01*
D02*
G37*
G36*
X432300Y905000D02*
Y884000D01*
X437300Y879000D01*
Y793000D01*
X486300D01*
X487300Y792000D01*
Y771000D01*
X484300Y768000D01*
X407300D01*
X402300Y773000D01*
X401300D01*
Y785000D01*
X403300Y787800D01*
Y872000D01*
X398300Y877000D01*
Y906000D01*
X403300Y911000D01*
X426300D01*
X432300Y905000D01*
D02*
G37*
G36*
X485300Y923000D02*
X485550Y906750D01*
X485300Y894000D01*
X486800Y893000D01*
Y881000D01*
Y857000D01*
X485300Y855500D01*
X484800Y856000D01*
X447300D01*
Y879000D01*
X451300Y884000D01*
Y937000D01*
X453300Y939000D01*
X483300D01*
X485300Y923000D01*
D02*
G37*
G36*
X392300Y983000D02*
Y981000D01*
Y928000D01*
Y927000D01*
X391300Y926000D01*
X359300D01*
Y951000D01*
X360300Y952000D01*
Y984000D01*
X392300D01*
Y983000D01*
D02*
G37*
G36*
X415999Y451339D02*
X427307Y440032D01*
Y436032D01*
Y293163D01*
X426352Y292325D01*
X425307Y292463D01*
X422866Y292142D01*
X420591Y291200D01*
X418638Y289701D01*
X417139Y287748D01*
X416197Y285473D01*
X415876Y283032D01*
X416197Y280592D01*
X416938Y278802D01*
X416265Y277532D01*
X413307D01*
Y274150D01*
X411306D01*
Y277532D01*
X387307D01*
Y274150D01*
X383306D01*
Y277532D01*
X359306D01*
Y274150D01*
X356306D01*
Y277532D01*
X332307D01*
Y274150D01*
X306056D01*
Y277032D01*
X290557D01*
X290557Y277032D01*
Y277032D01*
X289313Y277260D01*
X288975Y277701D01*
X287022Y279200D01*
X284747Y280142D01*
X282306Y280463D01*
X279866Y280142D01*
X277591Y279200D01*
X275638Y277701D01*
X274139Y275748D01*
X273197Y273473D01*
X272876Y271032D01*
X273197Y268592D01*
X274139Y266317D01*
X275638Y264364D01*
X277591Y262865D01*
X279866Y261923D01*
X282306Y261602D01*
X284747Y261923D01*
X287022Y262865D01*
X287738Y263415D01*
X289658D01*
X290556Y262517D01*
Y262033D01*
X290556D01*
Y262032D01*
X290557D01*
Y247032D01*
X293718D01*
Y245252D01*
X293591Y245200D01*
X291638Y243701D01*
X290139Y241748D01*
X289197Y239473D01*
X288876Y237032D01*
X289197Y234592D01*
X290139Y232317D01*
X291638Y230364D01*
X293591Y228865D01*
X295866Y227923D01*
X298307Y227602D01*
X300747Y227923D01*
X303022Y228865D01*
X304975Y230364D01*
X306474Y232317D01*
X307416Y234592D01*
X307737Y237032D01*
X307416Y239473D01*
X306474Y241748D01*
X304975Y243701D01*
X303022Y245200D01*
X302895Y245252D01*
Y247032D01*
X306056D01*
Y261915D01*
X332307D01*
Y258532D01*
X356306D01*
Y261915D01*
X359306D01*
Y258532D01*
X383306D01*
Y261915D01*
X387307D01*
Y258532D01*
X411306D01*
Y261915D01*
X413307D01*
Y258532D01*
X427307D01*
Y247072D01*
X426576D01*
Y238032D01*
Y228992D01*
X427307D01*
Y29032D01*
X423849Y19575D01*
X411306Y7032D01*
X369447D01*
X368509Y8302D01*
X368736Y10032D01*
X368415Y12473D01*
X367473Y14748D01*
X365974Y16701D01*
X364021Y18200D01*
X361747Y19142D01*
X359306Y19463D01*
X356865Y19142D01*
X354590Y18200D01*
X352637Y16701D01*
X351138Y14748D01*
X351086Y14620D01*
X336306D01*
X334551Y14271D01*
X333062Y13277D01*
X330406Y10621D01*
X277171D01*
X276306Y11532D01*
Y30532D01*
X252306D01*
Y29343D01*
X251133Y28857D01*
X242768Y37222D01*
X242787Y37267D01*
Y46032D01*
Y53572D01*
X236807D01*
Y54032D01*
X234424D01*
Y56032D01*
X233958Y58373D01*
X233029Y59764D01*
X233307Y60282D01*
X233307D01*
Y75782D01*
X218307D01*
Y75782D01*
X218306D01*
Y75782D01*
X204306D01*
Y77532D01*
X203846D01*
Y83512D01*
X196306D01*
X188766D01*
Y78613D01*
X187602Y77566D01*
X187061Y77591D01*
X186337Y78147D01*
X184634Y78852D01*
X182806Y79093D01*
X180979Y78852D01*
X179276Y78147D01*
X177814Y77025D01*
X176692Y75563D01*
X175987Y73860D01*
X175746Y72032D01*
X175987Y70205D01*
X176692Y68502D01*
X177814Y67040D01*
X179276Y65918D01*
X180979Y65213D01*
X182806Y64972D01*
X184634Y65213D01*
X184813Y65287D01*
X185551Y64794D01*
X187306Y64444D01*
X188307D01*
Y61452D01*
X178536D01*
Y49452D01*
X178997D01*
Y47222D01*
X187036D01*
Y44682D01*
X178997D01*
Y40412D01*
X178997Y40412D01*
X178996D01*
X178036Y39452D01*
Y33452D01*
X178436Y33052D01*
X177910Y31782D01*
X176306D01*
Y16282D01*
X179218D01*
Y7032D01*
X39306D01*
X12306Y34032D01*
X6306Y40032D01*
X6306Y436032D01*
X22306Y452032D01*
X405307D01*
X415999Y451339D01*
D02*
G37*
G36*
X207792Y18058D02*
X210062Y15788D01*
X211551Y14793D01*
X213307Y14444D01*
X221556D01*
Y11032D01*
X220457Y10621D01*
X188395D01*
Y16282D01*
X190037D01*
X191306Y16282D01*
Y16282D01*
X191307D01*
Y16282D01*
X206306D01*
Y17996D01*
X207577Y18381D01*
X207792Y18058D01*
D02*
G37*
%LPC*%
G36*
X305576Y162832D02*
Y155302D01*
X313106D01*
X312968Y156353D01*
X312072Y158516D01*
X310647Y160373D01*
X308790Y161798D01*
X306627Y162694D01*
X305576Y162832D01*
D02*
G37*
G36*
X38807Y262532D02*
X10806D01*
Y239532D01*
X16189D01*
Y233532D01*
X9306D01*
Y214532D01*
X33306D01*
Y216915D01*
X35306D01*
Y214532D01*
X58306D01*
Y205382D01*
X58306D01*
Y204682D01*
X58306D01*
Y203072D01*
X48576D01*
Y194032D01*
Y184992D01*
X54386D01*
X54655Y183641D01*
X55981Y181657D01*
X57965Y180331D01*
X58306Y180263D01*
Y179982D01*
X59715D01*
X60307Y179865D01*
X85257D01*
X85848Y179982D01*
X86306D01*
Y180074D01*
X87598Y180331D01*
X89582Y181657D01*
X96632Y188707D01*
X97958Y190691D01*
X98424Y193032D01*
Y218032D01*
X97958Y220373D01*
X96632Y222358D01*
X90582Y228408D01*
X88598Y229734D01*
X86257Y230200D01*
X59306D01*
Y233532D01*
X43925D01*
X43698Y233684D01*
X41357Y234150D01*
X41307D01*
X38965Y233684D01*
X38738Y233532D01*
X35306D01*
Y229150D01*
X33306D01*
Y233532D01*
X28424D01*
Y239532D01*
X38807D01*
Y262532D01*
D02*
G37*
G36*
X303036Y162832D02*
X301986Y162694D01*
X299823Y161798D01*
X297966Y160373D01*
X296541Y158516D01*
X295645Y156353D01*
X295507Y155302D01*
X303036D01*
Y162832D01*
D02*
G37*
G36*
X149347Y161762D02*
X141576D01*
Y151492D01*
X149347D01*
Y161762D01*
D02*
G37*
G36*
X139037D02*
X131266D01*
Y151492D01*
X139037D01*
Y161762D01*
D02*
G37*
G36*
X133847Y197412D02*
X120306D01*
X106767D01*
Y193252D01*
X106766Y193142D01*
X106501Y191982D01*
X106306D01*
Y179982D01*
X134306D01*
Y191982D01*
X134112D01*
X133847Y193142D01*
X133847Y193252D01*
Y197412D01*
D02*
G37*
G36*
X118307Y249463D02*
X115866Y249142D01*
X113591Y248200D01*
X111638Y246701D01*
X110139Y244748D01*
X109197Y242473D01*
X108876Y240032D01*
X109197Y237592D01*
X110139Y235317D01*
X111638Y233364D01*
X112189Y232941D01*
Y230177D01*
X109965Y229734D01*
X107981Y228408D01*
X106655Y226423D01*
X106189Y224082D01*
X106655Y221741D01*
X107981Y219757D01*
X109633Y218652D01*
X109248Y217382D01*
X106306D01*
Y205382D01*
X106501D01*
X106766Y204222D01*
X106767Y204112D01*
Y199952D01*
X120306D01*
X133847D01*
Y204031D01*
X133847Y204222D01*
X134156Y205364D01*
X134248Y205382D01*
X134306D01*
Y205394D01*
X135998Y205730D01*
X137982Y207057D01*
X138458Y207532D01*
X160306D01*
Y207722D01*
X161480Y208208D01*
X163231Y206457D01*
X163307Y206406D01*
Y202532D01*
X163766D01*
Y200801D01*
X161981Y199608D01*
X160981Y198608D01*
X159655Y196623D01*
X159545Y196072D01*
X149577D01*
Y187032D01*
X147037D01*
Y196072D01*
X146315D01*
X146147Y196184D01*
X143806Y196650D01*
X141465Y196184D01*
X141298Y196072D01*
X136767D01*
Y189541D01*
X136655Y189373D01*
X136189Y187032D01*
Y174572D01*
X131266D01*
Y164302D01*
X140307D01*
X149347D01*
Y174572D01*
X148424D01*
Y177992D01*
X159846D01*
Y178915D01*
X163307D01*
X165648Y179380D01*
X167632Y180707D01*
X169632Y182707D01*
X170958Y184691D01*
X171424Y187032D01*
Y187492D01*
X176359D01*
X176845Y186222D01*
X165981Y175358D01*
X165763Y175032D01*
X160807D01*
Y159403D01*
X146981Y145577D01*
X145655Y143592D01*
X145189Y141251D01*
X145655Y138910D01*
X146981Y136925D01*
X148965Y135599D01*
X151306Y135134D01*
X153648Y135599D01*
X155632Y136925D01*
X169739Y151032D01*
X179806D01*
Y171881D01*
X187632Y179707D01*
X188958Y181691D01*
X189424Y184032D01*
Y207032D01*
X188958Y209373D01*
X187632Y211358D01*
X183882Y215108D01*
X181898Y216434D01*
X179557Y216900D01*
X179306D01*
Y219032D01*
X167958D01*
X165632Y221358D01*
X163648Y222684D01*
X161306Y223150D01*
X160306D01*
Y226532D01*
X136306D01*
Y222244D01*
X135207Y221509D01*
X134492Y221818D01*
X134055Y222229D01*
X134424Y224082D01*
X133958Y226423D01*
X132632Y228408D01*
X130648Y229734D01*
X128307Y230200D01*
X124424D01*
Y232941D01*
X124975Y233364D01*
X126474Y235317D01*
X127416Y237592D01*
X127737Y240032D01*
X127416Y242473D01*
X126474Y244748D01*
X124975Y246701D01*
X123022Y248200D01*
X120747Y249142D01*
X118307Y249463D01*
D02*
G37*
G36*
X235000Y278156D02*
X229367Y277787D01*
X223831Y276685D01*
X218485Y274871D01*
X213422Y272374D01*
X208728Y269238D01*
X204484Y265516D01*
X200762Y261272D01*
X197626Y256578D01*
X195129Y251515D01*
X193315Y246170D01*
X192213Y240633D01*
X191844Y235000D01*
X192213Y229367D01*
X193315Y223831D01*
X195129Y218485D01*
X197626Y213422D01*
X200762Y208728D01*
X204484Y204484D01*
X208728Y200762D01*
X213422Y197626D01*
X218485Y195129D01*
X223831Y193315D01*
X229367Y192213D01*
X235000Y191844D01*
X240633Y192213D01*
X246170Y193315D01*
X251515Y195129D01*
X256578Y197626D01*
X261272Y200762D01*
X265516Y204484D01*
X269238Y208728D01*
X272374Y213422D01*
X274871Y218485D01*
X276685Y223831D01*
X277787Y229367D01*
X278156Y235000D01*
X277787Y240633D01*
X276685Y246170D01*
X274871Y251515D01*
X272374Y256578D01*
X269238Y261272D01*
X265516Y265516D01*
X261272Y269238D01*
X256578Y272374D01*
X251515Y274871D01*
X246170Y276685D01*
X240633Y277787D01*
X235000Y278156D01*
D02*
G37*
G36*
X20036Y203072D02*
X9766D01*
Y195302D01*
X20036D01*
Y203072D01*
D02*
G37*
G36*
Y192762D02*
X9766D01*
Y184992D01*
X20036D01*
Y192762D01*
D02*
G37*
G36*
X32846D02*
X22576D01*
Y184992D01*
X32846D01*
Y192762D01*
D02*
G37*
G36*
X46037D02*
X35766D01*
Y184992D01*
X46037D01*
Y192762D01*
D02*
G37*
G36*
X313106Y152762D02*
X305576D01*
Y145233D01*
X306627Y145371D01*
X308790Y146267D01*
X310647Y147692D01*
X312072Y149549D01*
X312968Y151712D01*
X313106Y152762D01*
D02*
G37*
G36*
X195037Y92572D02*
X188766D01*
Y86052D01*
X195037D01*
Y92572D01*
D02*
G37*
G36*
X203846D02*
X197577D01*
Y86052D01*
X203846D01*
Y92572D01*
D02*
G37*
G36*
X44707Y151127D02*
X41835Y150749D01*
X39159Y149641D01*
X36861Y147878D01*
X35098Y145580D01*
X33990Y142904D01*
X33612Y140032D01*
Y136032D01*
X33990Y133161D01*
X35098Y130485D01*
X36861Y128187D01*
X39159Y126424D01*
X41835Y125316D01*
X44707Y124937D01*
X47578Y125316D01*
X50254Y126424D01*
X52552Y128187D01*
X54315Y130485D01*
X55423Y133161D01*
X55801Y136032D01*
Y140032D01*
X55423Y142904D01*
X54315Y145580D01*
X52552Y147878D01*
X50254Y149641D01*
X47578Y150749D01*
X44707Y151127D01*
D02*
G37*
G36*
X263036Y60072D02*
X252766D01*
Y54417D01*
X251847Y53572D01*
X251497Y53572D01*
X245326D01*
Y46032D01*
Y38492D01*
X251847D01*
Y41147D01*
X252766Y41992D01*
X253116Y41992D01*
X263036D01*
Y51032D01*
Y60072D01*
D02*
G37*
G36*
X275847Y49762D02*
X265576D01*
Y41992D01*
X275847D01*
Y49762D01*
D02*
G37*
G36*
Y60072D02*
X265576D01*
Y52302D01*
X275847D01*
Y60072D01*
D02*
G37*
G36*
X70107Y151127D02*
X67235Y150749D01*
X64559Y149641D01*
X62261Y147878D01*
X60498Y145580D01*
X59390Y142904D01*
X59012Y140032D01*
Y136032D01*
X59390Y133161D01*
X60498Y130485D01*
X62261Y128187D01*
X64559Y126424D01*
X67235Y125316D01*
X70107Y124937D01*
X72978Y125316D01*
X75654Y126424D01*
X77952Y128187D01*
X79715Y130485D01*
X80823Y133161D01*
X81201Y136032D01*
Y140032D01*
X80823Y142904D01*
X79715Y145580D01*
X77952Y147878D01*
X75654Y149641D01*
X72978Y150749D01*
X70107Y151127D01*
D02*
G37*
G36*
X18037Y150572D02*
X8766D01*
Y139302D01*
X18037D01*
Y150572D01*
D02*
G37*
G36*
X29846D02*
X20577D01*
Y139302D01*
X29846D01*
Y150572D01*
D02*
G37*
G36*
X303036Y152762D02*
X295507D01*
X295645Y151712D01*
X296541Y149549D01*
X297966Y147692D01*
X299823Y146267D01*
X301986Y145371D01*
X303036Y145233D01*
Y152762D01*
D02*
G37*
G36*
X95506Y151127D02*
X92635Y150749D01*
X89959Y149641D01*
X87661Y147878D01*
X85898Y145580D01*
X84790Y142904D01*
X84412Y140032D01*
Y136032D01*
X84790Y133161D01*
X85898Y130485D01*
X87661Y128187D01*
X89959Y126424D01*
X92635Y125316D01*
X95506Y124937D01*
X98378Y125316D01*
X101054Y126424D01*
X103352Y128187D01*
X105115Y130485D01*
X106223Y133161D01*
X106601Y136032D01*
Y140032D01*
X106223Y142904D01*
X105115Y145580D01*
X103352Y147878D01*
X101054Y149641D01*
X98378Y150749D01*
X95506Y151127D01*
D02*
G37*
G36*
X18037Y136762D02*
X8766D01*
Y125492D01*
X18037D01*
Y136762D01*
D02*
G37*
G36*
X29846D02*
X20577D01*
Y125492D01*
X29846D01*
Y136762D01*
D02*
G37*
G36*
X32846Y203072D02*
X22576D01*
Y195302D01*
X32846D01*
Y203072D01*
D02*
G37*
G36*
X232806Y402532D02*
X215807D01*
Y390532D01*
Y381032D01*
Y372052D01*
X215806Y371533D01*
X214847Y370782D01*
X207353D01*
X206826Y372052D01*
X209306Y374532D01*
Y380532D01*
X208347Y381493D01*
X208347D01*
X208346Y381493D01*
Y385762D01*
X200306D01*
X192267D01*
Y381493D01*
X192266Y381493D01*
X192266D01*
X191306Y380532D01*
Y374532D01*
X193787Y372052D01*
X193260Y370782D01*
X186306D01*
Y355282D01*
X200037D01*
X201306Y355282D01*
X202577Y355282D01*
X216306D01*
Y370262D01*
X216306Y370782D01*
X217266Y371532D01*
X217347D01*
X218306Y370782D01*
X218306Y370262D01*
Y355282D01*
X232036D01*
X233306Y355282D01*
X234576Y355282D01*
X248306D01*
Y370782D01*
X233766Y370782D01*
X233039Y371350D01*
X232806Y371845D01*
X232806Y372052D01*
Y381032D01*
Y390532D01*
Y402532D01*
D02*
G37*
G36*
X179036Y381012D02*
X172766D01*
Y374492D01*
X179036D01*
Y381012D01*
D02*
G37*
G36*
X187846D02*
X181576D01*
Y374492D01*
X187846D01*
Y381012D01*
D02*
G37*
G36*
X43347Y337762D02*
X35577D01*
Y327492D01*
X43347D01*
Y337762D01*
D02*
G37*
G36*
X33036Y350572D02*
X25266D01*
Y340302D01*
X33036D01*
Y350572D01*
D02*
G37*
G36*
X43347D02*
X35577D01*
Y340302D01*
X43347D01*
Y350572D01*
D02*
G37*
G36*
X188306Y406032D02*
X172306D01*
Y389532D01*
X172766D01*
Y383552D01*
X180306D01*
X187846D01*
Y389532D01*
X188306D01*
Y406032D01*
D02*
G37*
G36*
X232306Y421782D02*
X231036Y421782D01*
X217306D01*
Y406282D01*
X231036D01*
X232306Y406282D01*
X233577Y406282D01*
X247306D01*
Y421782D01*
X233577D01*
X232306Y421782D01*
D02*
G37*
G36*
X280847Y412762D02*
X274326D01*
Y406492D01*
X280847D01*
Y412762D01*
D02*
G37*
G36*
Y421572D02*
X274326D01*
Y415302D01*
X280847D01*
Y421572D01*
D02*
G37*
G36*
X208806Y402532D02*
X191807D01*
Y390532D01*
X192267D01*
Y388302D01*
X200306D01*
X208346D01*
Y390532D01*
X208806D01*
Y402532D01*
D02*
G37*
G36*
X196306Y419093D02*
X194479Y418852D01*
X192776Y418147D01*
X191314Y417025D01*
X190192Y415563D01*
X189487Y413860D01*
X189246Y412032D01*
X189487Y410205D01*
X190192Y408502D01*
X191314Y407040D01*
X192776Y405918D01*
X194479Y405213D01*
X196306Y404972D01*
X198134Y405213D01*
X199837Y405918D01*
X201299Y407040D01*
X202421Y408502D01*
X203126Y410205D01*
X203367Y412032D01*
X203126Y413860D01*
X202421Y415563D01*
X201299Y417025D01*
X199837Y418147D01*
X198134Y418852D01*
X196306Y419093D01*
D02*
G37*
G36*
X265807Y422032D02*
X249307D01*
Y406032D01*
X265807D01*
Y406492D01*
X271786D01*
Y414032D01*
Y421572D01*
X265807D01*
Y422032D01*
D02*
G37*
G36*
X33036Y337762D02*
X25266D01*
Y327492D01*
X33036D01*
Y337762D01*
D02*
G37*
G36*
X325056Y249032D02*
X309557D01*
Y234652D01*
X309557Y234032D01*
X310016Y232953D01*
Y227802D01*
X317306D01*
X324596D01*
Y232953D01*
X325056Y234032D01*
X325056Y234652D01*
Y249032D01*
D02*
G37*
G36*
X343036Y236762D02*
X332766D01*
Y228992D01*
X343036D01*
Y236762D01*
D02*
G37*
G36*
X46037Y203072D02*
X35766D01*
Y195302D01*
X46037D01*
Y203072D01*
D02*
G37*
G36*
X412846Y217512D02*
X405306D01*
X397766D01*
Y211532D01*
X397307D01*
Y209621D01*
X395526D01*
X395474Y209748D01*
X393975Y211701D01*
X392022Y213200D01*
X389747Y214142D01*
X387307Y214463D01*
X384866Y214142D01*
X382591Y213200D01*
X380638Y211701D01*
X379139Y209748D01*
X378197Y207473D01*
X377876Y205032D01*
X378197Y202592D01*
X379139Y200317D01*
X380638Y198364D01*
X382591Y196865D01*
X384866Y195923D01*
X387307Y195602D01*
X389747Y195923D01*
X392022Y196865D01*
X393975Y198364D01*
X395474Y200317D01*
X395526Y200444D01*
X397307D01*
Y195032D01*
X413307D01*
Y211532D01*
X412846D01*
Y217512D01*
D02*
G37*
G36*
X316036Y225262D02*
X310016D01*
Y219492D01*
X316036D01*
Y225262D01*
D02*
G37*
G36*
X324596D02*
X318577D01*
Y219492D01*
X324596D01*
Y225262D01*
D02*
G37*
G36*
X126306Y311744D02*
X123534Y311379D01*
X120951Y310309D01*
X118732Y308607D01*
X117030Y306388D01*
X116693Y305574D01*
X115422Y305574D01*
X115181Y306156D01*
X113553Y308279D01*
X111430Y309907D01*
X108959Y310931D01*
X107577Y311113D01*
Y301032D01*
Y290952D01*
X108959Y291134D01*
X111430Y292158D01*
X113553Y293786D01*
X115181Y295909D01*
X115422Y296491D01*
X116693Y296491D01*
X117030Y295677D01*
X118732Y293458D01*
X120951Y291756D01*
X123534Y290686D01*
X126306Y290321D01*
X129079Y290686D01*
X131662Y291756D01*
X133881Y293458D01*
X135583Y295677D01*
X136653Y298260D01*
X137018Y301032D01*
X136653Y303805D01*
X135583Y306388D01*
X133881Y308607D01*
X131662Y310309D01*
X129079Y311379D01*
X126306Y311744D01*
D02*
G37*
G36*
X86306D02*
X83534Y311379D01*
X80951Y310309D01*
X78732Y308607D01*
X77030Y306388D01*
X76941Y306175D01*
X75672D01*
X75583Y306388D01*
X73881Y308607D01*
X71662Y310309D01*
X69079Y311379D01*
X66307Y311744D01*
X63534Y311379D01*
X60951Y310309D01*
X58732Y308607D01*
X57030Y306388D01*
X56941Y306175D01*
X55672D01*
X55583Y306388D01*
X53881Y308607D01*
X51662Y310309D01*
X49079Y311379D01*
X46307Y311744D01*
X43534Y311379D01*
X40951Y310309D01*
X38732Y308607D01*
X37030Y306388D01*
X36941Y306175D01*
X35672D01*
X35583Y306388D01*
X33881Y308607D01*
X31662Y310309D01*
X29079Y311379D01*
X26307Y311744D01*
X23534Y311379D01*
X20951Y310309D01*
X18732Y308607D01*
X17030Y306388D01*
X15960Y303805D01*
X15595Y301032D01*
X15960Y298260D01*
X17030Y295677D01*
X18732Y293458D01*
X20951Y291756D01*
X23534Y290686D01*
X26307Y290321D01*
X28127Y290560D01*
X30189Y288498D01*
Y285032D01*
X30655Y282691D01*
X31981Y280707D01*
X33965Y279380D01*
X36307Y278915D01*
X48773D01*
X57189Y270498D01*
Y262532D01*
X51807D01*
Y239532D01*
X79806D01*
Y262532D01*
X69424D01*
Y273032D01*
X68958Y275373D01*
X67632Y277358D01*
X55632Y289358D01*
X53648Y290684D01*
X52619Y290889D01*
X52302Y292247D01*
X53881Y293458D01*
X55583Y295677D01*
X55672Y295890D01*
X56941D01*
X57030Y295677D01*
X58732Y293458D01*
X60951Y291756D01*
X63534Y290686D01*
X66307Y290321D01*
X69079Y290686D01*
X71662Y291756D01*
X73881Y293458D01*
X75583Y295677D01*
X75672Y295890D01*
X76941D01*
X77030Y295677D01*
X78732Y293458D01*
X80951Y291756D01*
X83534Y290686D01*
X86306Y290321D01*
X89079Y290686D01*
X91662Y291756D01*
X93881Y293458D01*
X95583Y295677D01*
X95920Y296491D01*
X97190D01*
X97432Y295909D01*
X99060Y293786D01*
X101183Y292158D01*
X103654Y291134D01*
X105036Y290952D01*
Y301032D01*
Y311113D01*
X103654Y310931D01*
X101183Y309907D01*
X99060Y308279D01*
X97432Y306156D01*
X97190Y305574D01*
X95920D01*
X95583Y306388D01*
X93881Y308607D01*
X91662Y310309D01*
X89079Y311379D01*
X86306Y311744D01*
D02*
G37*
G36*
X73807Y351032D02*
X54806D01*
Y327032D01*
X73807D01*
Y351032D01*
D02*
G37*
G36*
X343036Y247072D02*
X332766D01*
Y239302D01*
X343036D01*
Y247072D01*
D02*
G37*
G36*
X370037D02*
X359767D01*
Y244150D01*
X355846D01*
Y247072D01*
X345577D01*
Y238032D01*
Y228992D01*
X355846D01*
Y231915D01*
X359767D01*
Y228992D01*
X370037D01*
Y238032D01*
Y247072D01*
D02*
G37*
G36*
X424036D02*
X413767D01*
Y244150D01*
X410846D01*
Y247072D01*
X400577D01*
Y238032D01*
X398036D01*
Y247072D01*
X387766D01*
Y244150D01*
X382846D01*
Y247072D01*
X372576D01*
Y238032D01*
Y228992D01*
X382846D01*
Y231915D01*
X387766D01*
Y228992D01*
X399189D01*
Y226572D01*
X397766D01*
Y220052D01*
X405306D01*
X412846D01*
Y226572D01*
X411424D01*
Y231915D01*
X413767D01*
Y228992D01*
X424036D01*
Y238032D01*
Y247072D01*
D02*
G37*
%LPD*%
G36*
X240776Y271469D02*
X246410Y270116D01*
X251763Y267899D01*
X256703Y264872D01*
X261109Y261109D01*
X264872Y256703D01*
X267899Y251763D01*
X270116Y246410D01*
X271469Y240776D01*
X271609Y238995D01*
X270746Y238062D01*
X235309Y238091D01*
X235308Y238091D01*
X235306Y238091D01*
X234715Y237973D01*
X234138Y237859D01*
X234137Y237859D01*
X234136Y237858D01*
X233643Y237529D01*
X233145Y237197D01*
X233145Y237196D01*
X233144Y237195D01*
X232813Y236700D01*
X232481Y236205D01*
X232481Y236204D01*
X232481Y236203D01*
X232360Y235599D01*
X232248Y235035D01*
X232248Y235034D01*
X232248Y235032D01*
X232365Y234441D01*
X232480Y233864D01*
X232480Y233863D01*
X232481Y233862D01*
X232805Y233376D01*
X233142Y232871D01*
X233143Y232871D01*
X233144Y232869D01*
X233176Y232837D01*
X234168Y232174D01*
X235339Y231941D01*
X235339Y231941D01*
X270747D01*
X271609Y231009D01*
X271469Y229224D01*
X270116Y223590D01*
X267899Y218237D01*
X264872Y213297D01*
X261109Y208891D01*
X256703Y205128D01*
X251763Y202101D01*
X246410Y199884D01*
X240776Y198531D01*
X235000Y198077D01*
X229224Y198531D01*
X223590Y199884D01*
X218237Y202101D01*
X213297Y205128D01*
X208891Y208891D01*
X205128Y213297D01*
X202101Y218237D01*
X199884Y223590D01*
X198531Y229224D01*
X198077Y235000D01*
X198531Y240776D01*
X199884Y246410D01*
X202101Y251763D01*
X205128Y256703D01*
X208891Y261109D01*
X213297Y264872D01*
X218237Y267899D01*
X223590Y270116D01*
X229224Y271469D01*
X235000Y271923D01*
X240776Y271469D01*
D02*
G37*
G36*
X925999Y451339D02*
X937307Y440032D01*
Y436032D01*
Y293163D01*
X936352Y292325D01*
X935306Y292463D01*
X932866Y292142D01*
X930591Y291200D01*
X928638Y289701D01*
X927139Y287748D01*
X926197Y285473D01*
X925876Y283032D01*
X926197Y280592D01*
X926938Y278802D01*
X926265Y277532D01*
X923307D01*
Y274150D01*
X921306D01*
Y277532D01*
X897307D01*
Y274150D01*
X893306D01*
Y277532D01*
X869306D01*
Y274150D01*
X866306D01*
Y277532D01*
X842307D01*
Y274150D01*
X816057D01*
Y277032D01*
X800556D01*
X800556Y277032D01*
Y277032D01*
X799313Y277260D01*
X798975Y277701D01*
X797022Y279200D01*
X794747Y280142D01*
X792307Y280463D01*
X789866Y280142D01*
X787591Y279200D01*
X785638Y277701D01*
X784139Y275748D01*
X783197Y273473D01*
X782876Y271032D01*
X783197Y268592D01*
X784139Y266317D01*
X785638Y264364D01*
X787591Y262865D01*
X789866Y261923D01*
X792307Y261602D01*
X794747Y261923D01*
X797022Y262865D01*
X797738Y263415D01*
X799658D01*
X800556Y262517D01*
Y262033D01*
X800556D01*
Y262032D01*
X800556D01*
Y247032D01*
X803718D01*
Y245252D01*
X803591Y245200D01*
X801638Y243701D01*
X800139Y241748D01*
X799197Y239473D01*
X798876Y237032D01*
X799197Y234592D01*
X800139Y232317D01*
X801638Y230364D01*
X803591Y228865D01*
X805866Y227923D01*
X808307Y227602D01*
X810747Y227923D01*
X813022Y228865D01*
X814975Y230364D01*
X816474Y232317D01*
X817416Y234592D01*
X817737Y237032D01*
X817416Y239473D01*
X816474Y241748D01*
X814975Y243701D01*
X813022Y245200D01*
X812895Y245252D01*
Y247032D01*
X816057D01*
Y261915D01*
X842307D01*
Y258532D01*
X866306D01*
Y261915D01*
X869306D01*
Y258532D01*
X893306D01*
Y261915D01*
X897307D01*
Y258532D01*
X921306D01*
Y261915D01*
X923307D01*
Y258532D01*
X937307D01*
Y247072D01*
X936577D01*
Y238032D01*
Y228992D01*
X937307D01*
Y29032D01*
X933849Y19575D01*
X921307Y7032D01*
X879447D01*
X878509Y8302D01*
X878736Y10032D01*
X878415Y12473D01*
X877473Y14748D01*
X875974Y16701D01*
X874021Y18200D01*
X871747Y19142D01*
X869306Y19463D01*
X866865Y19142D01*
X864590Y18200D01*
X862637Y16701D01*
X861139Y14748D01*
X861086Y14620D01*
X846307D01*
X844551Y14271D01*
X843062Y13277D01*
X840406Y10621D01*
X787171D01*
X786307Y11532D01*
Y30532D01*
X762307D01*
Y29343D01*
X761133Y28857D01*
X752768Y37222D01*
X752786Y37267D01*
Y46032D01*
Y53572D01*
X746806D01*
Y54032D01*
X744424D01*
Y56032D01*
X743958Y58373D01*
X743029Y59764D01*
X743307Y60282D01*
X743307D01*
Y75782D01*
X728307D01*
Y75782D01*
X728306D01*
Y75782D01*
X714306D01*
Y77532D01*
X713847D01*
Y83512D01*
X706307D01*
X698766D01*
Y78613D01*
X697602Y77566D01*
X697061Y77591D01*
X696337Y78147D01*
X694634Y78852D01*
X692806Y79093D01*
X690979Y78852D01*
X689276Y78147D01*
X687814Y77025D01*
X686692Y75563D01*
X685987Y73860D01*
X685746Y72032D01*
X685987Y70205D01*
X686692Y68502D01*
X687814Y67040D01*
X689276Y65918D01*
X690979Y65213D01*
X692806Y64972D01*
X694634Y65213D01*
X694813Y65287D01*
X695551Y64794D01*
X697307Y64444D01*
X698307D01*
Y61452D01*
X688537D01*
Y49452D01*
X688997D01*
Y47222D01*
X697037D01*
Y44682D01*
X688997D01*
Y40412D01*
X688997Y40412D01*
X688996D01*
X688036Y39452D01*
Y33452D01*
X688436Y33052D01*
X687910Y31782D01*
X686307D01*
Y16282D01*
X689218D01*
Y7032D01*
X549306D01*
X522307Y34032D01*
X516306Y40032D01*
X516306Y436032D01*
X532307Y452032D01*
X915306D01*
X925999Y451339D01*
D02*
G37*
G36*
X717792Y18058D02*
X720062Y15788D01*
X721551Y14793D01*
X723307Y14444D01*
X731556D01*
Y11032D01*
X730457Y10621D01*
X698395D01*
Y16282D01*
X700036D01*
X701306Y16282D01*
Y16282D01*
X701307D01*
Y16282D01*
X716307D01*
Y17996D01*
X717577Y18381D01*
X717792Y18058D01*
D02*
G37*
%LPC*%
G36*
X815576Y162832D02*
Y155302D01*
X823106D01*
X822968Y156353D01*
X822072Y158516D01*
X820647Y160373D01*
X818790Y161798D01*
X816627Y162694D01*
X815576Y162832D01*
D02*
G37*
G36*
X548806Y262532D02*
X520807D01*
Y239532D01*
X526189D01*
Y233532D01*
X519306D01*
Y214532D01*
X543306D01*
Y216915D01*
X545307D01*
Y214532D01*
X568307D01*
Y205382D01*
X568306D01*
Y204682D01*
X568307D01*
Y203072D01*
X558577D01*
Y194032D01*
Y184992D01*
X564386D01*
X564655Y183641D01*
X565981Y181657D01*
X567965Y180331D01*
X568307Y180263D01*
Y179982D01*
X569715D01*
X570307Y179865D01*
X595257D01*
X595847Y179982D01*
X596306D01*
Y180074D01*
X597598Y180331D01*
X599582Y181657D01*
X606632Y188707D01*
X607958Y190691D01*
X608424Y193032D01*
Y218032D01*
X607958Y220373D01*
X606632Y222358D01*
X600582Y228408D01*
X598598Y229734D01*
X596256Y230200D01*
X569306D01*
Y233532D01*
X553925D01*
X553698Y233684D01*
X551357Y234150D01*
X551306D01*
X548965Y233684D01*
X548738Y233532D01*
X545307D01*
Y229150D01*
X543306D01*
Y233532D01*
X538424D01*
Y239532D01*
X548806D01*
Y262532D01*
D02*
G37*
G36*
X813036Y162832D02*
X811986Y162694D01*
X809823Y161798D01*
X807966Y160373D01*
X806541Y158516D01*
X805645Y156353D01*
X805507Y155302D01*
X813036D01*
Y162832D01*
D02*
G37*
G36*
X659346Y161762D02*
X651577D01*
Y151492D01*
X659346D01*
Y161762D01*
D02*
G37*
G36*
X649036D02*
X641266D01*
Y151492D01*
X649036D01*
Y161762D01*
D02*
G37*
G36*
X643847Y197412D02*
X630306D01*
X616767D01*
Y193252D01*
X616766Y193142D01*
X616501Y191982D01*
X616306D01*
Y179982D01*
X644306D01*
Y191982D01*
X644112D01*
X643847Y193142D01*
X643847Y193252D01*
Y197412D01*
D02*
G37*
G36*
X628307Y249463D02*
X625866Y249142D01*
X623591Y248200D01*
X621638Y246701D01*
X620139Y244748D01*
X619197Y242473D01*
X618876Y240032D01*
X619197Y237592D01*
X620139Y235317D01*
X621638Y233364D01*
X622189Y232941D01*
Y230177D01*
X619965Y229734D01*
X617981Y228408D01*
X616655Y226423D01*
X616189Y224082D01*
X616655Y221741D01*
X617981Y219757D01*
X619633Y218652D01*
X619248Y217382D01*
X616306D01*
Y205382D01*
X616501D01*
X616766Y204222D01*
X616767Y204112D01*
Y199952D01*
X630306D01*
X643847D01*
Y204031D01*
X643847Y204222D01*
X644156Y205364D01*
X644248Y205382D01*
X644306D01*
Y205394D01*
X645998Y205730D01*
X647982Y207057D01*
X648458Y207532D01*
X670306D01*
Y207722D01*
X671480Y208208D01*
X673231Y206457D01*
X673307Y206406D01*
Y202532D01*
X673766D01*
Y200801D01*
X671981Y199608D01*
X670981Y198608D01*
X669655Y196623D01*
X669545Y196072D01*
X659576D01*
Y187032D01*
X657037D01*
Y196072D01*
X656315D01*
X656148Y196184D01*
X653806Y196650D01*
X651465Y196184D01*
X651298Y196072D01*
X646767D01*
Y189541D01*
X646655Y189373D01*
X646189Y187032D01*
Y174572D01*
X641266D01*
Y164302D01*
X650306D01*
X659346D01*
Y174572D01*
X658424D01*
Y177992D01*
X669846D01*
Y178915D01*
X673307D01*
X675648Y179380D01*
X677632Y180707D01*
X679632Y182707D01*
X680958Y184691D01*
X681424Y187032D01*
Y187492D01*
X686359D01*
X686845Y186222D01*
X675981Y175358D01*
X675763Y175032D01*
X670807D01*
Y159403D01*
X656981Y145577D01*
X655655Y143592D01*
X655189Y141251D01*
X655655Y138910D01*
X656981Y136925D01*
X658965Y135599D01*
X661307Y135134D01*
X663648Y135599D01*
X665632Y136925D01*
X679739Y151032D01*
X689806D01*
Y171881D01*
X697632Y179707D01*
X698958Y181691D01*
X699424Y184032D01*
Y207032D01*
X698958Y209373D01*
X697632Y211358D01*
X693882Y215108D01*
X691898Y216434D01*
X689557Y216900D01*
X689306D01*
Y219032D01*
X677958D01*
X675632Y221358D01*
X673648Y222684D01*
X671307Y223150D01*
X670306D01*
Y226532D01*
X646307D01*
Y222244D01*
X645207Y221509D01*
X644492Y221818D01*
X644055Y222229D01*
X644424Y224082D01*
X643958Y226423D01*
X642632Y228408D01*
X640648Y229734D01*
X638307Y230200D01*
X634424D01*
Y232941D01*
X634975Y233364D01*
X636474Y235317D01*
X637416Y237592D01*
X637737Y240032D01*
X637416Y242473D01*
X636474Y244748D01*
X634975Y246701D01*
X633022Y248200D01*
X630747Y249142D01*
X628307Y249463D01*
D02*
G37*
G36*
X745000Y278156D02*
X739367Y277787D01*
X733830Y276685D01*
X728485Y274871D01*
X723422Y272374D01*
X718728Y269238D01*
X714484Y265516D01*
X710762Y261272D01*
X707626Y256578D01*
X705129Y251515D01*
X703315Y246170D01*
X702213Y240633D01*
X701844Y235000D01*
X702213Y229367D01*
X703315Y223831D01*
X705129Y218485D01*
X707626Y213422D01*
X710762Y208728D01*
X714484Y204484D01*
X718728Y200762D01*
X723422Y197626D01*
X728485Y195129D01*
X733830Y193315D01*
X739367Y192213D01*
X745000Y191844D01*
X750633Y192213D01*
X756170Y193315D01*
X761515Y195129D01*
X766578Y197626D01*
X771272Y200762D01*
X775516Y204484D01*
X779238Y208728D01*
X782374Y213422D01*
X784871Y218485D01*
X786685Y223831D01*
X787787Y229367D01*
X788156Y235000D01*
X787787Y240633D01*
X786685Y246170D01*
X784871Y251515D01*
X782374Y256578D01*
X779238Y261272D01*
X775516Y265516D01*
X771272Y269238D01*
X766578Y272374D01*
X761515Y274871D01*
X756170Y276685D01*
X750633Y277787D01*
X745000Y278156D01*
D02*
G37*
G36*
X530037Y203072D02*
X519767D01*
Y195302D01*
X530037D01*
Y203072D01*
D02*
G37*
G36*
Y192762D02*
X519767D01*
Y184992D01*
X530037D01*
Y192762D01*
D02*
G37*
G36*
X542846D02*
X532576D01*
Y184992D01*
X542846D01*
Y192762D01*
D02*
G37*
G36*
X556036D02*
X545766D01*
Y184992D01*
X556036D01*
Y192762D01*
D02*
G37*
G36*
X823106Y152762D02*
X815576D01*
Y145233D01*
X816627Y145371D01*
X818790Y146267D01*
X820647Y147692D01*
X822072Y149549D01*
X822968Y151712D01*
X823106Y152762D01*
D02*
G37*
G36*
X705036Y92572D02*
X698766D01*
Y86052D01*
X705036D01*
Y92572D01*
D02*
G37*
G36*
X713847D02*
X707577D01*
Y86052D01*
X713847D01*
Y92572D01*
D02*
G37*
G36*
X554706Y151127D02*
X551835Y150749D01*
X549159Y149641D01*
X546861Y147878D01*
X545098Y145580D01*
X543990Y142904D01*
X543612Y140032D01*
Y136032D01*
X543990Y133161D01*
X545098Y130485D01*
X546861Y128187D01*
X549159Y126424D01*
X551835Y125316D01*
X554706Y124937D01*
X557578Y125316D01*
X560254Y126424D01*
X562552Y128187D01*
X564315Y130485D01*
X565423Y133161D01*
X565801Y136032D01*
Y140032D01*
X565423Y142904D01*
X564315Y145580D01*
X562552Y147878D01*
X560254Y149641D01*
X557578Y150749D01*
X554706Y151127D01*
D02*
G37*
G36*
X773036Y60072D02*
X762766D01*
Y54417D01*
X761846Y53572D01*
X761497Y53572D01*
X755327D01*
Y46032D01*
Y38492D01*
X761846D01*
Y41147D01*
X762766Y41992D01*
X763117Y41992D01*
X773036D01*
Y51032D01*
Y60072D01*
D02*
G37*
G36*
X785846Y49762D02*
X775576D01*
Y41992D01*
X785846D01*
Y49762D01*
D02*
G37*
G36*
Y60072D02*
X775576D01*
Y52302D01*
X785846D01*
Y60072D01*
D02*
G37*
G36*
X580107Y151127D02*
X577235Y150749D01*
X574559Y149641D01*
X572261Y147878D01*
X570498Y145580D01*
X569390Y142904D01*
X569012Y140032D01*
Y136032D01*
X569390Y133161D01*
X570498Y130485D01*
X572261Y128187D01*
X574559Y126424D01*
X577235Y125316D01*
X580107Y124937D01*
X582978Y125316D01*
X585654Y126424D01*
X587952Y128187D01*
X589715Y130485D01*
X590823Y133161D01*
X591201Y136032D01*
Y140032D01*
X590823Y142904D01*
X589715Y145580D01*
X587952Y147878D01*
X585654Y149641D01*
X582978Y150749D01*
X580107Y151127D01*
D02*
G37*
G36*
X528036Y150572D02*
X518767D01*
Y139302D01*
X528036D01*
Y150572D01*
D02*
G37*
G36*
X539846D02*
X530577D01*
Y139302D01*
X539846D01*
Y150572D01*
D02*
G37*
G36*
X813036Y152762D02*
X805507D01*
X805645Y151712D01*
X806541Y149549D01*
X807966Y147692D01*
X809823Y146267D01*
X811986Y145371D01*
X813036Y145233D01*
Y152762D01*
D02*
G37*
G36*
X605507Y151127D02*
X602635Y150749D01*
X599959Y149641D01*
X597661Y147878D01*
X595898Y145580D01*
X594790Y142904D01*
X594412Y140032D01*
Y136032D01*
X594790Y133161D01*
X595898Y130485D01*
X597661Y128187D01*
X599959Y126424D01*
X602635Y125316D01*
X605507Y124937D01*
X608378Y125316D01*
X611054Y126424D01*
X613352Y128187D01*
X615115Y130485D01*
X616223Y133161D01*
X616601Y136032D01*
Y140032D01*
X616223Y142904D01*
X615115Y145580D01*
X613352Y147878D01*
X611054Y149641D01*
X608378Y150749D01*
X605507Y151127D01*
D02*
G37*
G36*
X528036Y136762D02*
X518767D01*
Y125492D01*
X528036D01*
Y136762D01*
D02*
G37*
G36*
X539846D02*
X530577D01*
Y125492D01*
X539846D01*
Y136762D01*
D02*
G37*
G36*
X542846Y203072D02*
X532576D01*
Y195302D01*
X542846D01*
Y203072D01*
D02*
G37*
G36*
X742806Y402532D02*
X725807D01*
Y390532D01*
Y381032D01*
Y372052D01*
X725806Y371533D01*
X724847Y370782D01*
X717353D01*
X716826Y372052D01*
X719306Y374532D01*
Y380532D01*
X718346Y381493D01*
X718346D01*
X718346Y381493D01*
Y385762D01*
X710306D01*
X702266D01*
Y381493D01*
X702266Y381493D01*
X702266D01*
X701307Y380532D01*
Y374532D01*
X703786Y372052D01*
X703260Y370782D01*
X696307D01*
Y355282D01*
X710036D01*
X711306Y355282D01*
X712577Y355282D01*
X726306D01*
Y370262D01*
X726307Y370782D01*
X727266Y371532D01*
X727347D01*
X728306Y370782D01*
X728306Y370262D01*
Y355282D01*
X742036D01*
X743306Y355282D01*
X744576Y355282D01*
X758306D01*
Y370782D01*
X743766Y370782D01*
X743039Y371350D01*
X742806Y371845D01*
X742806Y372052D01*
Y381032D01*
Y390532D01*
Y402532D01*
D02*
G37*
G36*
X689036Y381012D02*
X682766D01*
Y374492D01*
X689036D01*
Y381012D01*
D02*
G37*
G36*
X697846D02*
X691576D01*
Y374492D01*
X697846D01*
Y381012D01*
D02*
G37*
G36*
X553346Y337762D02*
X545577D01*
Y327492D01*
X553346D01*
Y337762D01*
D02*
G37*
G36*
X543036Y350572D02*
X535266D01*
Y340302D01*
X543036D01*
Y350572D01*
D02*
G37*
G36*
X553346D02*
X545577D01*
Y340302D01*
X553346D01*
Y350572D01*
D02*
G37*
G36*
X698306Y406032D02*
X682307D01*
Y389532D01*
X682766D01*
Y383552D01*
X690306D01*
X697846D01*
Y389532D01*
X698306D01*
Y406032D01*
D02*
G37*
G36*
X742307Y421782D02*
X741037Y421782D01*
X727307D01*
Y406282D01*
X741037D01*
X742306Y406282D01*
X743577Y406282D01*
X757307D01*
Y421782D01*
X743577D01*
X742307Y421782D01*
D02*
G37*
G36*
X790846Y412762D02*
X784326D01*
Y406492D01*
X790846D01*
Y412762D01*
D02*
G37*
G36*
Y421572D02*
X784326D01*
Y415302D01*
X790846D01*
Y421572D01*
D02*
G37*
G36*
X718806Y402532D02*
X701806D01*
Y390532D01*
X702266D01*
Y388302D01*
X710306D01*
X718346D01*
Y390532D01*
X718806D01*
Y402532D01*
D02*
G37*
G36*
X706307Y419093D02*
X704479Y418852D01*
X702776Y418147D01*
X701314Y417025D01*
X700192Y415563D01*
X699487Y413860D01*
X699246Y412032D01*
X699487Y410205D01*
X700192Y408502D01*
X701314Y407040D01*
X702776Y405918D01*
X704479Y405213D01*
X706307Y404972D01*
X708134Y405213D01*
X709837Y405918D01*
X711299Y407040D01*
X712421Y408502D01*
X713126Y410205D01*
X713367Y412032D01*
X713126Y413860D01*
X712421Y415563D01*
X711299Y417025D01*
X709837Y418147D01*
X708134Y418852D01*
X706307Y419093D01*
D02*
G37*
G36*
X775806Y422032D02*
X759306D01*
Y406032D01*
X775806D01*
Y406492D01*
X781786D01*
Y414032D01*
Y421572D01*
X775806D01*
Y422032D01*
D02*
G37*
G36*
X543036Y337762D02*
X535266D01*
Y327492D01*
X543036D01*
Y337762D01*
D02*
G37*
G36*
X835057Y249032D02*
X819557D01*
Y234652D01*
X819557Y234032D01*
X820016Y232953D01*
Y227802D01*
X827307D01*
X834596D01*
Y232953D01*
X835057Y234032D01*
X835057Y234652D01*
Y249032D01*
D02*
G37*
G36*
X853036Y236762D02*
X842766D01*
Y228992D01*
X853036D01*
Y236762D01*
D02*
G37*
G36*
X556036Y203072D02*
X545766D01*
Y195302D01*
X556036D01*
Y203072D01*
D02*
G37*
G36*
X922847Y217512D02*
X915306D01*
X907766D01*
Y211532D01*
X907307D01*
Y209621D01*
X905526D01*
X905474Y209748D01*
X903975Y211701D01*
X902022Y213200D01*
X899747Y214142D01*
X897307Y214463D01*
X894866Y214142D01*
X892591Y213200D01*
X890638Y211701D01*
X889139Y209748D01*
X888197Y207473D01*
X887876Y205032D01*
X888197Y202592D01*
X889139Y200317D01*
X890638Y198364D01*
X892591Y196865D01*
X894866Y195923D01*
X897307Y195602D01*
X899747Y195923D01*
X902022Y196865D01*
X903975Y198364D01*
X905474Y200317D01*
X905526Y200444D01*
X907307D01*
Y195032D01*
X923307D01*
Y211532D01*
X922847D01*
Y217512D01*
D02*
G37*
G36*
X826037Y225262D02*
X820016D01*
Y219492D01*
X826037D01*
Y225262D01*
D02*
G37*
G36*
X834596D02*
X828577D01*
Y219492D01*
X834596D01*
Y225262D01*
D02*
G37*
G36*
X636306Y311744D02*
X633534Y311379D01*
X630951Y310309D01*
X628732Y308607D01*
X627030Y306388D01*
X626693Y305574D01*
X625423Y305574D01*
X625181Y306156D01*
X623553Y308279D01*
X621430Y309907D01*
X618959Y310931D01*
X617576Y311113D01*
Y301032D01*
Y290952D01*
X618959Y291134D01*
X621430Y292158D01*
X623553Y293786D01*
X625181Y295909D01*
X625423Y296491D01*
X626693Y296491D01*
X627030Y295677D01*
X628732Y293458D01*
X630951Y291756D01*
X633534Y290686D01*
X636306Y290321D01*
X639079Y290686D01*
X641662Y291756D01*
X643881Y293458D01*
X645583Y295677D01*
X646653Y298260D01*
X647018Y301032D01*
X646653Y303805D01*
X645583Y306388D01*
X643881Y308607D01*
X641662Y310309D01*
X639079Y311379D01*
X636306Y311744D01*
D02*
G37*
G36*
X596306D02*
X593534Y311379D01*
X590951Y310309D01*
X588732Y308607D01*
X587030Y306388D01*
X586941Y306175D01*
X585672D01*
X585583Y306388D01*
X583881Y308607D01*
X581662Y310309D01*
X579079Y311379D01*
X576306Y311744D01*
X573534Y311379D01*
X570951Y310309D01*
X568732Y308607D01*
X567030Y306388D01*
X566941Y306175D01*
X565672D01*
X565583Y306388D01*
X563881Y308607D01*
X561662Y310309D01*
X559079Y311379D01*
X556306Y311744D01*
X553534Y311379D01*
X550951Y310309D01*
X548732Y308607D01*
X547030Y306388D01*
X546941Y306175D01*
X545672D01*
X545583Y306388D01*
X543881Y308607D01*
X541662Y310309D01*
X539079Y311379D01*
X536306Y311744D01*
X533534Y311379D01*
X530951Y310309D01*
X528732Y308607D01*
X527030Y306388D01*
X525960Y303805D01*
X525595Y301032D01*
X525960Y298260D01*
X527030Y295677D01*
X528732Y293458D01*
X530951Y291756D01*
X533534Y290686D01*
X536306Y290321D01*
X538127Y290560D01*
X540189Y288498D01*
Y285032D01*
X540655Y282691D01*
X541981Y280707D01*
X543965Y279380D01*
X546306Y278915D01*
X558773D01*
X567189Y270498D01*
Y262532D01*
X561806D01*
Y239532D01*
X589807D01*
Y262532D01*
X579424D01*
Y273032D01*
X578958Y275373D01*
X577632Y277358D01*
X565632Y289358D01*
X563648Y290684D01*
X562619Y290889D01*
X562302Y292247D01*
X563881Y293458D01*
X565583Y295677D01*
X565672Y295890D01*
X566941D01*
X567030Y295677D01*
X568732Y293458D01*
X570951Y291756D01*
X573534Y290686D01*
X576306Y290321D01*
X579079Y290686D01*
X581662Y291756D01*
X583881Y293458D01*
X585583Y295677D01*
X585672Y295890D01*
X586941D01*
X587030Y295677D01*
X588732Y293458D01*
X590951Y291756D01*
X593534Y290686D01*
X596306Y290321D01*
X599079Y290686D01*
X601662Y291756D01*
X603881Y293458D01*
X605583Y295677D01*
X605920Y296491D01*
X607190D01*
X607432Y295909D01*
X609060Y293786D01*
X611183Y292158D01*
X613654Y291134D01*
X615037Y290952D01*
Y301032D01*
Y311113D01*
X613654Y310931D01*
X611183Y309907D01*
X609060Y308279D01*
X607432Y306156D01*
X607190Y305574D01*
X605920D01*
X605583Y306388D01*
X603881Y308607D01*
X601662Y310309D01*
X599079Y311379D01*
X596306Y311744D01*
D02*
G37*
G36*
X583806Y351032D02*
X564807D01*
Y327032D01*
X583806D01*
Y351032D01*
D02*
G37*
G36*
X853036Y247072D02*
X842766D01*
Y239302D01*
X853036D01*
Y247072D01*
D02*
G37*
G36*
X880036D02*
X869766D01*
Y244150D01*
X865846D01*
Y247072D01*
X855576D01*
Y238032D01*
Y228992D01*
X865846D01*
Y231915D01*
X869766D01*
Y228992D01*
X880036D01*
Y238032D01*
Y247072D01*
D02*
G37*
G36*
X934036D02*
X923766D01*
Y244150D01*
X920846D01*
Y247072D01*
X910576D01*
Y238032D01*
X908036D01*
Y247072D01*
X897766D01*
Y244150D01*
X892846D01*
Y247072D01*
X882577D01*
Y238032D01*
Y228992D01*
X892846D01*
Y231915D01*
X897766D01*
Y228992D01*
X909189D01*
Y226572D01*
X907766D01*
Y220052D01*
X915306D01*
X922847D01*
Y226572D01*
X921424D01*
Y231915D01*
X923766D01*
Y228992D01*
X934036D01*
Y238032D01*
Y247072D01*
D02*
G37*
%LPD*%
G36*
X750776Y271469D02*
X756410Y270116D01*
X761763Y267899D01*
X766703Y264872D01*
X771109Y261109D01*
X774872Y256703D01*
X777899Y251763D01*
X780116Y246410D01*
X781469Y240776D01*
X781609Y238995D01*
X780747Y238062D01*
X745309Y238091D01*
X745308Y238091D01*
X745306Y238091D01*
X744715Y237973D01*
X744138Y237859D01*
X744137Y237859D01*
X744136Y237858D01*
X743643Y237529D01*
X743145Y237197D01*
X743145Y237196D01*
X743144Y237195D01*
X742813Y236700D01*
X742482Y236205D01*
X742481Y236204D01*
X742480Y236203D01*
X742360Y235599D01*
X742248Y235035D01*
X742248Y235034D01*
X742248Y235032D01*
X742365Y234441D01*
X742480Y233864D01*
X742480Y233863D01*
X742480Y233862D01*
X742805Y233376D01*
X743142Y232871D01*
X743143Y232871D01*
X743144Y232869D01*
X743176Y232837D01*
X744168Y232174D01*
X745339Y231941D01*
X745339Y231941D01*
X780747D01*
X781609Y231009D01*
X781469Y229224D01*
X780116Y223590D01*
X777899Y218237D01*
X774872Y213297D01*
X771109Y208891D01*
X766703Y205128D01*
X761763Y202101D01*
X756410Y199884D01*
X750776Y198531D01*
X745000Y198077D01*
X739224Y198531D01*
X733590Y199884D01*
X728237Y202101D01*
X723297Y205128D01*
X718891Y208891D01*
X715128Y213297D01*
X712101Y218237D01*
X709884Y223590D01*
X708531Y229224D01*
X708077Y235000D01*
X708531Y240776D01*
X709884Y246410D01*
X712101Y251763D01*
X715128Y256703D01*
X718891Y261109D01*
X723297Y264872D01*
X728237Y267899D01*
X733590Y270116D01*
X739224Y271469D01*
X745000Y271923D01*
X750776Y271469D01*
D02*
G37*
D10*
X204000Y930000D02*
D03*
Y900000D02*
D03*
X205000Y833000D02*
D03*
Y863000D02*
D03*
X561300Y930000D02*
D03*
Y900000D02*
D03*
X562300Y833000D02*
D03*
Y863000D02*
D03*
X148307Y217032D02*
D03*
Y187032D02*
D03*
X47306Y224032D02*
D03*
Y194032D02*
D03*
X21307Y224032D02*
D03*
Y194032D02*
D03*
X264307Y21032D02*
D03*
Y51032D02*
D03*
X425307Y268032D02*
D03*
Y238032D02*
D03*
X399306Y268032D02*
D03*
Y238032D02*
D03*
X371306Y268032D02*
D03*
Y238032D02*
D03*
X344306Y268032D02*
D03*
Y238032D02*
D03*
X658307Y217032D02*
D03*
Y187032D02*
D03*
X557307Y224032D02*
D03*
Y194032D02*
D03*
X531306Y224032D02*
D03*
Y194032D02*
D03*
X774306Y21032D02*
D03*
Y51032D02*
D03*
X935306Y268032D02*
D03*
Y238032D02*
D03*
X909306Y268032D02*
D03*
Y238032D02*
D03*
X881307Y268032D02*
D03*
Y238032D02*
D03*
X854306Y268032D02*
D03*
Y238032D02*
D03*
D11*
X102000Y637500D02*
D03*
Y724500D02*
D03*
X109000Y781500D02*
D03*
Y868500D02*
D03*
X459300Y637500D02*
D03*
Y724500D02*
D03*
X466300Y781500D02*
D03*
Y868500D02*
D03*
D12*
X220250Y664550D02*
D03*
Y677250D02*
D03*
Y689950D02*
D03*
Y702650D02*
D03*
Y715350D02*
D03*
Y728050D02*
D03*
Y740750D02*
D03*
Y753450D02*
D03*
X271750Y664550D02*
D03*
Y677250D02*
D03*
Y689950D02*
D03*
Y702650D02*
D03*
Y715350D02*
D03*
Y728050D02*
D03*
Y740750D02*
D03*
X577550Y664550D02*
D03*
Y677250D02*
D03*
Y689950D02*
D03*
Y702650D02*
D03*
Y715350D02*
D03*
Y728050D02*
D03*
Y740750D02*
D03*
Y753450D02*
D03*
X629050Y664550D02*
D03*
Y677250D02*
D03*
Y689950D02*
D03*
Y702650D02*
D03*
Y715350D02*
D03*
Y728050D02*
D03*
Y740750D02*
D03*
X72306Y185982D02*
D03*
Y198682D02*
D03*
Y211382D02*
D03*
Y224082D02*
D03*
X120307Y185982D02*
D03*
Y198682D02*
D03*
Y211382D02*
D03*
X582307Y185982D02*
D03*
Y198682D02*
D03*
Y211382D02*
D03*
Y224082D02*
D03*
X630307Y185982D02*
D03*
Y198682D02*
D03*
Y211382D02*
D03*
D13*
X271750Y753450D02*
D03*
X629050D02*
D03*
X120307Y224082D02*
D03*
X630307D02*
D03*
D14*
X65000Y663500D02*
D03*
Y634500D02*
D03*
X49000Y556500D02*
D03*
Y585500D02*
D03*
X422300Y663500D02*
D03*
Y634500D02*
D03*
X406300Y556500D02*
D03*
Y585500D02*
D03*
D15*
X102500Y557000D02*
D03*
X73500D02*
D03*
X459800D02*
D03*
X430800D02*
D03*
D16*
X30000Y667000D02*
D03*
X18310Y941000D02*
D03*
X142000Y565000D02*
D03*
X20000Y823000D02*
D03*
X109000Y922000D02*
D03*
X387300Y667000D02*
D03*
X375610Y941000D02*
D03*
X499300Y565000D02*
D03*
X377300Y823000D02*
D03*
X466300Y922000D02*
D03*
D17*
X291419Y740750D02*
X306000Y755331D01*
Y839999D01*
X295000Y695000D02*
Y698000D01*
X289950Y689950D02*
X295000Y695000D01*
X271750Y689950D02*
X289950D01*
X278000Y780500D02*
X279380Y781880D01*
Y831380D01*
X298310Y759310D02*
Y805690D01*
X292450Y753450D02*
X298310Y759310D01*
X274750Y753450D02*
X292450D01*
X290000Y814000D02*
X298310Y805690D01*
X298000Y847999D02*
X306000Y839999D01*
X274750Y740750D02*
X291419D01*
X253380Y677620D02*
X271380D01*
X271750Y677250D01*
X249000Y682000D02*
X253380Y677620D01*
X249000Y682000D02*
Y756000D01*
X260000Y767000D01*
X271750Y677250D02*
X274750D01*
X298000Y847999D02*
Y926999D01*
X309000Y938000D01*
X290000Y814000D02*
Y940000D01*
X309000Y959000D01*
X280540Y832540D02*
Y917461D01*
X278000Y920000D02*
X280540Y917461D01*
X259000Y920000D02*
X278000D01*
X255000Y924000D02*
X259000Y920000D01*
X279380Y831380D02*
X280540Y832540D01*
X260000Y767000D02*
Y869000D01*
X263000Y872000D01*
X648719Y740750D02*
X663300Y755331D01*
Y839999D01*
X652300Y695000D02*
Y698000D01*
X647250Y689950D02*
X652300Y695000D01*
X629050Y689950D02*
X647250D01*
X635300Y780500D02*
X636680Y781880D01*
Y831380D01*
X655610Y759310D02*
Y805690D01*
X649750Y753450D02*
X655610Y759310D01*
X632050Y753450D02*
X649750D01*
X647300Y814000D02*
X655610Y805690D01*
X655300Y847999D02*
X663300Y839999D01*
X632050Y740750D02*
X648719D01*
X610680Y677620D02*
X628680D01*
X629050Y677250D01*
X606300Y682000D02*
X610680Y677620D01*
X606300Y682000D02*
Y756000D01*
X617300Y767000D01*
X629050Y677250D02*
X632050D01*
X655300Y847999D02*
Y926999D01*
X666300Y938000D01*
X647300Y814000D02*
Y940000D01*
X666300Y959000D01*
X637840Y832540D02*
Y917461D01*
X635300Y920000D02*
X637840Y917461D01*
X616300Y920000D02*
X635300D01*
X612300Y924000D02*
X616300Y920000D01*
X636680Y831380D02*
X637840Y832540D01*
X617300Y767000D02*
Y869000D01*
X620300Y872000D01*
D18*
X220250Y656750D02*
Y663900D01*
X195900D02*
X220250D01*
X192000Y660000D02*
X195900Y663900D01*
X220250D02*
Y664550D01*
X192000Y677250D02*
X223250D01*
X241000Y759696D02*
Y763837D01*
X240730Y759426D02*
X241000Y759696D01*
X240730Y747730D02*
Y759426D01*
X233750Y740750D02*
X240730Y747730D01*
X241000Y763837D02*
X249500Y772337D01*
X223250Y740750D02*
X233750D01*
X204000Y900000D02*
X207700D01*
X204000Y864000D02*
X205000Y863000D01*
X204000Y864000D02*
Y900000D01*
X216000Y833000D02*
X231000Y818000D01*
X205000Y833000D02*
X216000D01*
X211850Y790836D02*
X220264Y799250D01*
X211850Y764850D02*
Y790836D01*
Y764850D02*
X223250Y753450D01*
X251450Y664550D02*
X287550D01*
X249000Y667000D02*
X251450Y664550D01*
X197000Y698000D02*
Y700000D01*
Y698000D02*
X205050Y689950D01*
X223250D01*
X249500Y772337D02*
Y877000D01*
X231000Y895500D02*
X249500Y877000D01*
X220250Y656750D02*
X225740Y651260D01*
X298310D01*
X204000Y930000D02*
X228000D01*
X231000Y933000D01*
X222200Y914500D02*
X238663D01*
X207700Y900000D02*
X222200Y914500D01*
X238163Y914000D02*
X238663Y914500D01*
X241999Y914000D02*
X242000Y913999D01*
X238163Y914000D02*
X241999D01*
X577550Y656750D02*
Y663900D01*
X553200D02*
X577550D01*
X549300Y660000D02*
X553200Y663900D01*
X577550D02*
Y664550D01*
X549300Y677250D02*
X580550D01*
X598300Y759696D02*
Y763837D01*
X598030Y759426D02*
X598300Y759696D01*
X598030Y747730D02*
Y759426D01*
X591050Y740750D02*
X598030Y747730D01*
X598300Y763837D02*
X606800Y772337D01*
X580550Y740750D02*
X591050D01*
X561300Y900000D02*
X565000D01*
X561300Y864000D02*
X562300Y863000D01*
X561300Y864000D02*
Y900000D01*
X573300Y833000D02*
X588300Y818000D01*
X562300Y833000D02*
X573300D01*
X569150Y790836D02*
X577564Y799250D01*
X569150Y764850D02*
Y790836D01*
Y764850D02*
X580550Y753450D01*
X608750Y664550D02*
X644850D01*
X606300Y667000D02*
X608750Y664550D01*
X554300Y698000D02*
Y700000D01*
Y698000D02*
X562350Y689950D01*
X580550D01*
X606800Y772337D02*
Y877000D01*
X588300Y895500D02*
X606800Y877000D01*
X577550Y656750D02*
X583040Y651260D01*
X655610D01*
X561300Y930000D02*
X585300D01*
X588300Y933000D01*
X579500Y914500D02*
X595963D01*
X565000Y900000D02*
X579500Y914500D01*
X595463Y914000D02*
X595963Y914500D01*
X599299Y914000D02*
X599300Y913999D01*
X595463Y914000D02*
X599299D01*
D19*
X18310Y941000D02*
X21000Y943690D01*
Y970500D01*
X57000Y781500D02*
X63000Y787500D01*
X56000Y780500D02*
X57000Y781500D01*
X63000Y787500D02*
Y872000D01*
X56000Y879000D02*
X63000Y872000D01*
X56000Y879000D02*
Y895500D01*
X57000Y781500D02*
X109000D01*
Y868500D02*
Y922000D01*
X18310Y575060D02*
X19560D01*
X18310Y727460D02*
X21270Y724500D01*
X102000D01*
X375610Y941000D02*
X378300Y943690D01*
Y970500D01*
X414300Y781500D02*
X420300Y787500D01*
X413300Y780500D02*
X414300Y781500D01*
X420300Y787500D02*
Y872000D01*
X413300Y879000D02*
X420300Y872000D01*
X413300Y879000D02*
Y895500D01*
X414300Y781500D02*
X466300D01*
Y868500D02*
Y922000D01*
X375610Y575060D02*
X376860D01*
X375610Y727460D02*
X378570Y724500D01*
X459300D01*
D20*
X20000Y823000D02*
X21000Y824000D01*
Y855500D01*
X377300Y823000D02*
X378300Y824000D01*
Y855500D01*
D21*
X19560Y575060D02*
X30000Y585500D01*
X49000D01*
Y556500D02*
X77000D01*
X102500Y557000D02*
X134000D01*
X142000Y565000D01*
X65000Y634500D02*
X99000D01*
X30000Y667000D02*
X33500Y663500D01*
X65000D01*
X376860Y575060D02*
X387300Y585500D01*
X406300D01*
Y556500D02*
X434300D01*
X459800Y557000D02*
X491300D01*
X499300Y565000D01*
X422300Y634500D02*
X456300D01*
X387300Y667000D02*
X390800Y663500D01*
X422300D01*
D22*
X187036Y36452D02*
D03*
X200306Y377532D02*
D03*
X697037Y36452D02*
D03*
X710306Y377532D02*
D03*
D23*
X187036Y45952D02*
D03*
Y55452D02*
D03*
X211036D02*
D03*
Y45952D02*
D03*
Y36452D02*
D03*
X200306Y387032D02*
D03*
Y396532D02*
D03*
X224307D02*
D03*
Y387032D02*
D03*
Y377532D02*
D03*
X697037Y45952D02*
D03*
Y55452D02*
D03*
X721037D02*
D03*
Y45952D02*
D03*
Y36452D02*
D03*
X710306Y387032D02*
D03*
Y396532D02*
D03*
X734306D02*
D03*
Y387032D02*
D03*
Y377532D02*
D03*
D24*
X180306Y397782D02*
D03*
Y382282D02*
D03*
X171306Y210782D02*
D03*
Y195282D02*
D03*
X196306Y69282D02*
D03*
Y84782D02*
D03*
X405307Y203282D02*
D03*
Y218782D02*
D03*
X690306Y397782D02*
D03*
Y382282D02*
D03*
X681307Y210782D02*
D03*
Y195282D02*
D03*
X706307Y69282D02*
D03*
Y84782D02*
D03*
X915306Y203282D02*
D03*
Y218782D02*
D03*
D25*
X228556Y46032D02*
D03*
X244056D02*
D03*
X257556Y414032D02*
D03*
X273057D02*
D03*
X738557Y46032D02*
D03*
X754056D02*
D03*
X767557Y414032D02*
D03*
X783056D02*
D03*
D26*
X208806Y363032D02*
D03*
X193806D02*
D03*
X225806D02*
D03*
X240807D02*
D03*
X224806Y414032D02*
D03*
X239806D02*
D03*
X198806Y24032D02*
D03*
X183806D02*
D03*
X210807Y68032D02*
D03*
X225807D02*
D03*
X718807Y363032D02*
D03*
X703806D02*
D03*
X735806D02*
D03*
X750806D02*
D03*
X734807Y414032D02*
D03*
X749807D02*
D03*
X708807Y24032D02*
D03*
X693807D02*
D03*
X720807Y68032D02*
D03*
X735807D02*
D03*
D27*
X229307Y18532D02*
D03*
Y33532D02*
D03*
X317306Y241532D02*
D03*
Y226532D02*
D03*
X298307Y254532D02*
D03*
Y269532D02*
D03*
X739306Y18532D02*
D03*
Y33532D02*
D03*
X827307Y241532D02*
D03*
Y226532D02*
D03*
X808307Y254532D02*
D03*
Y269532D02*
D03*
D28*
X65806Y251032D02*
D03*
X24806D02*
D03*
X575807D02*
D03*
X534806D02*
D03*
D29*
X64307Y339032D02*
D03*
X34306D02*
D03*
X170306Y163032D02*
D03*
X140307D02*
D03*
X574306Y339032D02*
D03*
X544306D02*
D03*
X680306Y163032D02*
D03*
X650306D02*
D03*
D30*
X44257Y223032D02*
X45282Y224057D01*
X22306Y223032D02*
X44257D01*
X118307Y211382D02*
X133657D01*
X60307Y185982D02*
X85257D01*
X165306Y194282D02*
X166306Y195282D01*
X165306Y187032D02*
Y194282D01*
X163307Y185032D02*
X165306Y187032D01*
X149306Y185032D02*
X163307D01*
X142306Y171032D02*
Y187032D01*
X140307Y169032D02*
X142306Y171032D01*
X140307Y163032D02*
Y169032D01*
X144806Y189532D02*
X149306Y185032D01*
X161306Y217032D02*
X167556Y210782D01*
X140307Y217032D02*
X161306D01*
X133657Y211382D02*
X139306Y217032D01*
X143806Y190532D02*
X144806Y189532D01*
X142306Y187032D02*
X144806Y189532D01*
X26307Y301032D02*
X36307Y291032D01*
Y285032D02*
Y291032D01*
Y285032D02*
X51307D01*
X63306Y258532D02*
Y273032D01*
X51307Y285032D02*
X63306Y273032D01*
X151306Y141251D02*
X173088Y163032D01*
X167556Y210782D02*
X179557D01*
X183307Y207032D01*
X170306Y163032D02*
Y171032D01*
X183307Y184032D01*
Y207032D01*
X85257Y185982D02*
X92306Y193032D01*
X45307Y224082D02*
X86257D01*
X92306Y218032D01*
Y193032D02*
Y218032D01*
X399306Y268032D02*
X425307D01*
X371306D02*
X399306D01*
X344306D02*
X371306D01*
X425307D02*
Y283032D01*
X298307Y269532D02*
X299806Y268032D01*
X344306D01*
X399306Y238032D02*
X425307D01*
X371306D02*
X399306D01*
X344306D02*
X371306D01*
X405307Y218782D02*
Y232032D01*
X399306Y238032D02*
X405307Y232032D01*
X118307Y211382D02*
Y239032D01*
X283806Y269532D02*
X298307D01*
X282306Y271032D02*
X283806Y269532D01*
X211036Y45952D02*
X228476D01*
X228556Y46032D01*
X229307Y33532D02*
Y45282D01*
X199387Y45952D02*
X211036D01*
X199307Y46032D02*
X199387Y45952D01*
X199307Y24532D02*
Y46032D01*
X198806Y24032D02*
X199307Y24532D01*
X229307Y33532D02*
X237806D01*
X225807Y58532D02*
Y68032D01*
Y58532D02*
X228307Y56032D01*
Y46122D02*
Y56032D01*
X228556Y46032D02*
X229307Y45282D01*
X228307Y46122D02*
X228476Y45952D01*
X41307Y228032D02*
X41357D01*
X45307Y224082D01*
X22306Y248532D02*
X24806Y251032D01*
X20807Y248532D02*
Y251032D01*
X22306Y223032D02*
Y248532D01*
X237806Y33532D02*
X249307Y22032D01*
Y21032D02*
Y22032D01*
Y21032D02*
X264307D01*
X264307Y21032D01*
X554256Y223032D02*
X555281Y224057D01*
X532307Y223032D02*
X554256D01*
X628307Y211382D02*
X643656D01*
X570307Y185982D02*
X595257D01*
X675306Y194282D02*
X676307Y195282D01*
X675306Y187032D02*
Y194282D01*
X673307Y185032D02*
X675306Y187032D01*
X659306Y185032D02*
X673307D01*
X652307Y171032D02*
Y187032D01*
X650306Y169032D02*
X652307Y171032D01*
X650306Y163032D02*
Y169032D01*
X654807Y189532D02*
X659306Y185032D01*
X671307Y217032D02*
X677557Y210782D01*
X650306Y217032D02*
X671307D01*
X643656Y211382D02*
X649306Y217032D01*
X653807Y190532D02*
X654807Y189532D01*
X652307Y187032D02*
X654807Y189532D01*
X536306Y301032D02*
X546306Y291032D01*
Y285032D02*
Y291032D01*
Y285032D02*
X561306D01*
X573307Y258532D02*
Y273032D01*
X561306Y285032D02*
X573307Y273032D01*
X661307Y141251D02*
X683088Y163032D01*
X677557Y210782D02*
X689557D01*
X693307Y207032D01*
X680306Y163032D02*
Y171032D01*
X693307Y184032D01*
Y207032D01*
X595257Y185982D02*
X602307Y193032D01*
X555307Y224082D02*
X596256D01*
X602307Y218032D01*
Y193032D02*
Y218032D01*
X909306Y268032D02*
X935306D01*
X881307D02*
X909306D01*
X854306D02*
X881307D01*
X935306D02*
Y283032D01*
X808307Y269532D02*
X809807Y268032D01*
X854306D01*
X909306Y238032D02*
X935306D01*
X881307D02*
X909306D01*
X854306D02*
X881307D01*
X915306Y218782D02*
Y232032D01*
X909306Y238032D02*
X915306Y232032D01*
X628307Y211382D02*
Y239032D01*
X793807Y269532D02*
X808307D01*
X792307Y271032D02*
X793807Y269532D01*
X721037Y45952D02*
X738476D01*
X738557Y46032D01*
X739306Y33532D02*
Y45282D01*
X709387Y45952D02*
X721037D01*
X709306Y46032D02*
X709387Y45952D01*
X709306Y24532D02*
Y46032D01*
X708807Y24032D02*
X709306Y24532D01*
X739306Y33532D02*
X747806D01*
X735807Y58532D02*
Y68032D01*
Y58532D02*
X738307Y56032D01*
Y46122D02*
Y56032D01*
X738557Y46032D02*
X739306Y45282D01*
X738307Y46122D02*
X738476Y45952D01*
X551306Y228032D02*
X551357D01*
X555307Y224082D01*
X532307Y248532D02*
X534806Y251032D01*
X530807Y248532D02*
Y251032D01*
X532307Y223032D02*
Y248532D01*
X747806Y33532D02*
X759306Y22032D01*
Y21032D02*
Y22032D01*
Y21032D02*
X774306D01*
X774306Y21032D01*
D31*
X298307Y237032D02*
Y254532D01*
X387307Y205032D02*
X403557D01*
X405307Y203282D01*
X211036Y21302D02*
Y36452D01*
Y21302D02*
X213307Y19032D01*
X228806D01*
X229307Y18532D01*
X211036Y55452D02*
Y67802D01*
X210807Y68032D02*
X211036Y67802D01*
X183806Y33222D02*
X187036Y36452D01*
X183806Y24032D02*
Y33222D01*
X336306Y10032D02*
X359306D01*
X184307Y6032D02*
X332307D01*
X336306Y10032D01*
X187036Y55452D02*
X195726D01*
X196306Y56032D02*
Y69282D01*
X195726Y55452D02*
X196306Y56032D01*
X182806Y72032D02*
X184306D01*
X187306Y69032D01*
X196056D01*
X196306Y69282D01*
X183806Y6532D02*
Y24032D01*
Y6532D02*
X184307Y6032D01*
X808307Y237032D02*
Y254532D01*
X897307Y205032D02*
X913557D01*
X915306Y203282D01*
X721037Y21302D02*
Y36452D01*
Y21302D02*
X723307Y19032D01*
X738807D01*
X739306Y18532D01*
X721037Y55452D02*
Y67802D01*
X720807Y68032D02*
X721037Y67802D01*
X693807Y33222D02*
X697037Y36452D01*
X693807Y24032D02*
Y33222D01*
X846307Y10032D02*
X869306D01*
X694306Y6032D02*
X842307D01*
X846307Y10032D01*
X697037Y55452D02*
X705726D01*
X706307Y56032D02*
Y69282D01*
X705726Y55452D02*
X706307Y56032D01*
X692806Y72032D02*
X694306D01*
X697307Y69032D01*
X706056D01*
X706307Y69282D01*
X693807Y6532D02*
Y24032D01*
Y6532D02*
X694306Y6032D01*
D32*
X231000Y933000D02*
D03*
Y895500D02*
D03*
Y970500D02*
D03*
X56000Y895500D02*
D03*
X21000Y970500D02*
D03*
X231000Y818000D02*
D03*
Y780500D02*
D03*
Y855500D02*
D03*
X56000Y780500D02*
D03*
X21000Y855500D02*
D03*
X588300Y933000D02*
D03*
Y895500D02*
D03*
Y970500D02*
D03*
X413300Y895500D02*
D03*
X378300Y970500D02*
D03*
X588300Y818000D02*
D03*
Y780500D02*
D03*
Y855500D02*
D03*
X413300Y780500D02*
D03*
X378300Y855500D02*
D03*
D33*
X298310Y727460D02*
D03*
Y651260D02*
D03*
X18310Y727460D02*
D03*
Y575060D02*
D03*
X655610Y727460D02*
D03*
Y651260D02*
D03*
X375610Y727460D02*
D03*
Y575060D02*
D03*
D34*
X278000Y780500D02*
D03*
X295000Y698000D02*
D03*
X192000Y660000D02*
D03*
X220264Y799250D02*
D03*
X192000Y677250D02*
D03*
X249000Y667000D02*
D03*
X197000Y700000D02*
D03*
X242000Y913999D02*
D03*
X309000Y959000D02*
D03*
Y938000D02*
D03*
X255000Y924000D02*
D03*
X263000Y872000D02*
D03*
X635300Y780500D02*
D03*
X652300Y698000D02*
D03*
X549300Y660000D02*
D03*
X577564Y799250D02*
D03*
X549300Y677250D02*
D03*
X606300Y667000D02*
D03*
X554300Y700000D02*
D03*
X599300Y913999D02*
D03*
X666300Y959000D02*
D03*
Y938000D02*
D03*
X612300Y924000D02*
D03*
X620300Y872000D02*
D03*
X425307Y283032D02*
D03*
X118307Y240032D02*
D03*
X282306Y271032D02*
D03*
X298307Y237032D02*
D03*
X387307Y205032D02*
D03*
X359306Y10032D02*
D03*
X304307Y154032D02*
D03*
X935306Y283032D02*
D03*
X628307Y240032D02*
D03*
X792307Y271032D02*
D03*
X808307Y237032D02*
D03*
X897307Y205032D02*
D03*
X869306Y10032D02*
D03*
X814306Y154032D02*
D03*
D35*
X95506Y138032D02*
D03*
X70107D02*
D03*
X44707D02*
D03*
X605507D02*
D03*
X580107D02*
D03*
X554706D02*
D03*
D36*
X19306D02*
D03*
X529306D02*
D03*
D37*
X46307Y301032D02*
D03*
X66307D02*
D03*
X126306D02*
D03*
X26307D02*
D03*
X106306D02*
D03*
X86306D02*
D03*
X556306D02*
D03*
X576306D02*
D03*
X636306D02*
D03*
X536306D02*
D03*
X616306D02*
D03*
X596306D02*
D03*
D38*
X182806Y72032D02*
D03*
X196306Y412032D02*
D03*
X692806Y72032D02*
D03*
X706307Y412032D02*
D03*
M02*
