G04 Layer_Color=2752767*
%FSLAX44Y44*%
%MOMM*%
G71*
G01*
G75*
%ADD17C,0.2540*%
%ADD66C,0.0508*%
%ADD67C,0.0677*%
D17*
X392910Y577435D02*
Y562200D01*
X400528D01*
X403067Y564739D01*
Y574896D01*
X400528Y577435D01*
X392910D01*
X408145Y572357D02*
Y562200D01*
Y567278D01*
X410684Y569818D01*
X413224Y572357D01*
X415763D01*
X423380Y562200D02*
X428459D01*
X425919D01*
Y572357D01*
X423380D01*
X436076Y562200D02*
X441155D01*
X438615D01*
Y577435D01*
X436076D01*
X448772Y562200D02*
X453850D01*
X451311D01*
Y577435D01*
X448772D01*
X476703D02*
Y562200D01*
X484320D01*
X486860Y564739D01*
Y574896D01*
X484320Y577435D01*
X476703D01*
X491938Y572357D02*
Y562200D01*
Y567278D01*
X494477Y569818D01*
X497016Y572357D01*
X499556D01*
X509712D02*
X514791D01*
X517330Y569818D01*
Y562200D01*
X509712D01*
X507173Y564739D01*
X509712Y567278D01*
X517330D01*
X522408Y572357D02*
Y564739D01*
X524947Y562200D01*
X527487Y564739D01*
X530026Y562200D01*
X532565Y564739D01*
Y572357D01*
X537643Y562200D02*
X542722D01*
X540182D01*
Y572357D01*
X537643D01*
X550339Y562200D02*
Y572357D01*
X557957D01*
X560496Y569818D01*
Y562200D01*
X570653Y557122D02*
X573192D01*
X575731Y559661D01*
Y572357D01*
X568113D01*
X565574Y569818D01*
Y564739D01*
X568113Y562200D01*
X575731D01*
X580809D02*
Y564739D01*
X583349D01*
Y562200D01*
X580809D01*
X750210Y577435D02*
Y562200D01*
X757828D01*
X760367Y564739D01*
Y574896D01*
X757828Y577435D01*
X750210D01*
X765445Y572357D02*
Y562200D01*
Y567278D01*
X767984Y569818D01*
X770524Y572357D01*
X773063D01*
X780680Y562200D02*
X785759D01*
X783220D01*
Y572357D01*
X780680D01*
X793376Y562200D02*
X798455D01*
X795915D01*
Y577435D01*
X793376D01*
X806072Y562200D02*
X811150D01*
X808611D01*
Y577435D01*
X806072D01*
X834003D02*
Y562200D01*
X841621D01*
X844160Y564739D01*
Y574896D01*
X841621Y577435D01*
X834003D01*
X849238Y572357D02*
Y562200D01*
Y567278D01*
X851777Y569818D01*
X854316Y572357D01*
X856856D01*
X867012D02*
X872091D01*
X874630Y569818D01*
Y562200D01*
X867012D01*
X864473Y564739D01*
X867012Y567278D01*
X874630D01*
X879708Y572357D02*
Y564739D01*
X882247Y562200D01*
X884787Y564739D01*
X887326Y562200D01*
X889865Y564739D01*
Y572357D01*
X894943Y562200D02*
X900022D01*
X897483D01*
Y572357D01*
X894943D01*
X907639Y562200D02*
Y572357D01*
X915257D01*
X917796Y569818D01*
Y562200D01*
X927953Y557122D02*
X930492D01*
X933031Y559661D01*
Y572357D01*
X925414D01*
X922874Y569818D01*
Y564739D01*
X925414Y562200D01*
X933031D01*
X938109D02*
Y564739D01*
X940649D01*
Y562200D01*
X938109D01*
X495737Y25668D02*
Y10432D01*
X503354D01*
X505893Y12972D01*
Y23128D01*
X503354Y25668D01*
X495737D01*
X510971Y20589D02*
Y10432D01*
Y15511D01*
X513511Y18050D01*
X516050Y20589D01*
X518589D01*
X526207Y10432D02*
X531285D01*
X528746D01*
Y20589D01*
X526207D01*
X538903Y10432D02*
X543981D01*
X541442D01*
Y25668D01*
X538903D01*
X551598Y10432D02*
X556677D01*
X554138D01*
Y25668D01*
X551598D01*
X579529D02*
Y10432D01*
X587147D01*
X589686Y12972D01*
Y23128D01*
X587147Y25668D01*
X579529D01*
X594764Y20589D02*
Y10432D01*
Y15511D01*
X597304Y18050D01*
X599843Y20589D01*
X602382D01*
X612539D02*
X617617D01*
X620156Y18050D01*
Y10432D01*
X612539D01*
X610000Y12972D01*
X612539Y15511D01*
X620156D01*
X625235Y20589D02*
Y12972D01*
X627774Y10432D01*
X630313Y12972D01*
X632852Y10432D01*
X635391Y12972D01*
Y20589D01*
X640470Y10432D02*
X645548D01*
X643009D01*
Y20589D01*
X640470D01*
X653166Y10432D02*
Y20589D01*
X660783D01*
X663322Y18050D01*
Y10432D01*
X673479Y5354D02*
X676018D01*
X678557Y7893D01*
Y20589D01*
X670940D01*
X668401Y18050D01*
Y12972D01*
X670940Y10432D01*
X678557D01*
X683636D02*
Y12972D01*
X686175D01*
Y10432D01*
X683636D01*
X1005736Y25668D02*
Y10432D01*
X1013354D01*
X1015893Y12972D01*
Y23128D01*
X1013354Y25668D01*
X1005736D01*
X1020972Y20589D02*
Y10432D01*
Y15511D01*
X1023511Y18050D01*
X1026050Y20589D01*
X1028589D01*
X1036207Y10432D02*
X1041285D01*
X1038746D01*
Y20589D01*
X1036207D01*
X1048903Y10432D02*
X1053981D01*
X1051442D01*
Y25668D01*
X1048903D01*
X1061598Y10432D02*
X1066677D01*
X1064138D01*
Y25668D01*
X1061598D01*
X1089529D02*
Y10432D01*
X1097147D01*
X1099686Y12972D01*
Y23128D01*
X1097147Y25668D01*
X1089529D01*
X1104764Y20589D02*
Y10432D01*
Y15511D01*
X1107304Y18050D01*
X1109843Y20589D01*
X1112382D01*
X1122539D02*
X1127617D01*
X1130156Y18050D01*
Y10432D01*
X1122539D01*
X1119999Y12972D01*
X1122539Y15511D01*
X1130156D01*
X1135235Y20589D02*
Y12972D01*
X1137774Y10432D01*
X1140313Y12972D01*
X1142852Y10432D01*
X1145391Y12972D01*
Y20589D01*
X1150470Y10432D02*
X1155548D01*
X1153009D01*
Y20589D01*
X1150470D01*
X1163166Y10432D02*
Y20589D01*
X1170783D01*
X1173322Y18050D01*
Y10432D01*
X1183479Y5354D02*
X1186018D01*
X1188557Y7893D01*
Y20589D01*
X1180940D01*
X1178401Y18050D01*
Y12972D01*
X1180940Y10432D01*
X1188557D01*
X1193636D02*
Y12972D01*
X1196175D01*
Y10432D01*
X1193636D01*
D66*
X315968Y952968D02*
Y957032D01*
X320032D01*
Y952968D01*
X315968D01*
Y942968D02*
Y947032D01*
X320032D01*
Y942968D01*
X315968D01*
Y932968D02*
Y937032D01*
X320032D01*
Y932968D01*
X315968D01*
Y922968D02*
Y927032D01*
X320032D01*
Y922968D01*
X315968D01*
X354968Y952968D02*
Y957032D01*
X359032D01*
Y952968D01*
X354968D01*
Y942968D02*
Y947032D01*
X359032D01*
Y942968D01*
X354968D01*
Y932968D02*
Y937032D01*
X359032D01*
Y932968D01*
X354968D01*
Y922968D02*
Y927032D01*
X359032D01*
Y922968D01*
X354968D01*
Y567968D02*
Y572032D01*
X359032D01*
Y567968D01*
X354968D01*
Y577968D02*
Y582032D01*
X359032D01*
Y577968D01*
X354968D01*
Y587968D02*
Y592032D01*
X359032D01*
Y587968D01*
X354968D01*
Y597968D02*
Y602032D01*
X359032D01*
Y597968D01*
X354968D01*
X315968Y567968D02*
Y572032D01*
X320032D01*
Y567968D01*
X315968D01*
Y577968D02*
Y582032D01*
X320032D01*
Y577968D01*
X315968D01*
Y587968D02*
Y592032D01*
X320032D01*
Y587968D01*
X315968D01*
Y597968D02*
Y602032D01*
X320032D01*
Y597968D01*
X315968D01*
X617968Y467968D02*
Y472032D01*
X622032D01*
Y467968D01*
X617968D01*
X637968D02*
Y472032D01*
X642032D01*
Y467968D01*
X637968D01*
X627968D02*
Y472032D01*
X632032D01*
Y467968D01*
X627968D01*
X647968D02*
Y472032D01*
X652032D01*
Y467968D01*
X647968D01*
Y537968D02*
Y542032D01*
X652032D01*
Y537968D01*
X647968D01*
X627968D02*
Y542032D01*
X632032D01*
Y537968D01*
X627968D01*
X637968D02*
Y542032D01*
X642032D01*
Y537968D01*
X637968D01*
X617968D02*
Y542032D01*
X622032D01*
Y537968D01*
X617968D01*
X367968Y467968D02*
Y472032D01*
X372032D01*
Y467968D01*
X367968D01*
X387968D02*
Y472032D01*
X392032D01*
Y467968D01*
X387968D01*
X377968D02*
Y472032D01*
X382032D01*
Y467968D01*
X377968D01*
X397968D02*
Y472032D01*
X402032D01*
Y467968D01*
X397968D01*
Y537968D02*
Y542032D01*
X402032D01*
Y537968D01*
X397968D01*
X377968D02*
Y542032D01*
X382032D01*
Y537968D01*
X377968D01*
X387968D02*
Y542032D01*
X392032D01*
Y537968D01*
X387968D01*
X367968D02*
Y542032D01*
X372032D01*
Y537968D01*
X367968D01*
X253968Y467968D02*
Y472032D01*
X258032D01*
Y467968D01*
X253968D01*
X273968D02*
Y472032D01*
X278032D01*
Y467968D01*
X273968D01*
X263968D02*
Y472032D01*
X268032D01*
Y467968D01*
X263968D01*
X283968D02*
Y472032D01*
X288032D01*
Y467968D01*
X283968D01*
Y537968D02*
Y542032D01*
X288032D01*
Y537968D01*
X283968D01*
X263968D02*
Y542032D01*
X268032D01*
Y537968D01*
X263968D01*
X273968D02*
Y542032D01*
X278032D01*
Y537968D01*
X273968D01*
X253968D02*
Y542032D01*
X258032D01*
Y537968D01*
X253968D01*
X67968D02*
Y542032D01*
X72032D01*
Y537968D01*
X67968D01*
X87968D02*
Y542032D01*
X92032D01*
Y537968D01*
X87968D01*
X77968D02*
Y542032D01*
X82032D01*
Y537968D01*
X77968D01*
X97968D02*
Y542032D01*
X102032D01*
Y537968D01*
X97968D01*
Y467968D02*
Y472032D01*
X102032D01*
Y467968D01*
X97968D01*
X77968D02*
Y472032D01*
X82032D01*
Y467968D01*
X77968D01*
X87968D02*
Y472032D01*
X92032D01*
Y467968D01*
X87968D01*
X67968D02*
Y472032D01*
X72032D01*
Y467968D01*
X67968D01*
X507968Y102968D02*
Y107032D01*
X512032D01*
Y102968D01*
X507968D01*
Y92968D02*
Y97032D01*
X512032D01*
Y92968D01*
X507968D01*
Y82968D02*
Y87032D01*
X512032D01*
Y82968D01*
X507968D01*
Y72968D02*
Y77032D01*
X512032D01*
Y72968D01*
X507968D01*
X467641Y71968D02*
Y76032D01*
X471705D01*
Y71968D01*
X467641D01*
Y81968D02*
Y86032D01*
X471705D01*
Y81968D01*
X467641D01*
Y91968D02*
Y96032D01*
X471705D01*
Y91968D01*
X467641D01*
Y101968D02*
Y106032D01*
X471705D01*
Y101968D01*
X467641D01*
X467968Y392968D02*
Y397032D01*
X472032D01*
Y392968D01*
X467968D01*
Y382968D02*
Y387032D01*
X472032D01*
Y382968D01*
X467968D01*
Y372968D02*
Y377032D01*
X472032D01*
Y372968D01*
X467968D01*
Y362968D02*
Y367032D01*
X472032D01*
Y362968D01*
X467968D01*
X507968D02*
Y367032D01*
X512032D01*
Y362968D01*
X507968D01*
Y372968D02*
Y377032D01*
X512032D01*
Y372968D01*
X507968D01*
Y382968D02*
Y387032D01*
X512032D01*
Y382968D01*
X507968D01*
Y392968D02*
Y397032D01*
X512032D01*
Y392968D01*
X507968D01*
X298310Y725428D02*
X296278Y729492D01*
X300342D01*
X298310Y725428D01*
Y649228D02*
X296278Y653292D01*
X300342D01*
X298310Y649228D01*
X18310Y725428D02*
X16278Y729492D01*
X20342D01*
X18310Y725428D01*
Y573028D02*
X16278Y577092D01*
X20342D01*
X18310Y573028D01*
X278000Y778468D02*
X279016Y779484D01*
X280032D01*
X279016Y780500D01*
X280032Y781516D01*
X279016D01*
X278000Y782532D01*
X276984Y781516D01*
X275968D01*
X276984Y780500D01*
X275968Y779484D01*
X276984D01*
X278000Y778468D01*
X295000Y695968D02*
X296016Y696984D01*
X297032D01*
X296016Y698000D01*
X297032Y699016D01*
X296016D01*
X295000Y700032D01*
X293984Y699016D01*
X292968D01*
X293984Y698000D01*
X292968Y696984D01*
X293984D01*
X295000Y695968D01*
X192000Y657968D02*
X193016Y658984D01*
X194032D01*
X193016Y660000D01*
X194032Y661016D01*
X193016D01*
X192000Y662032D01*
X190984Y661016D01*
X189968D01*
X190984Y660000D01*
X189968Y658984D01*
X190984D01*
X192000Y657968D01*
X220264Y797218D02*
X221280Y798234D01*
X222296D01*
X221280Y799250D01*
X222296Y800266D01*
X221280D01*
X220264Y801282D01*
X219248Y800266D01*
X218232D01*
X219248Y799250D01*
X218232Y798234D01*
X219248D01*
X220264Y797218D01*
X192000Y675218D02*
X193016Y676234D01*
X194032D01*
X193016Y677250D01*
X194032Y678266D01*
X193016D01*
X192000Y679282D01*
X190984Y678266D01*
X189968D01*
X190984Y677250D01*
X189968Y676234D01*
X190984D01*
X192000Y675218D01*
X249000Y664968D02*
X250016Y665984D01*
X251032D01*
X250016Y667000D01*
X251032Y668016D01*
X250016D01*
X249000Y669032D01*
X247984Y668016D01*
X246968D01*
X247984Y667000D01*
X246968Y665984D01*
X247984D01*
X249000Y664968D01*
X197000Y697968D02*
X198016Y698984D01*
X199032D01*
X198016Y700000D01*
X199032Y701016D01*
X198016D01*
X197000Y702032D01*
X195984Y701016D01*
X194968D01*
X195984Y700000D01*
X194968Y698984D01*
X195984D01*
X197000Y697968D01*
X242000Y911967D02*
X243016Y912983D01*
X244032D01*
X243016Y913999D01*
X244032Y915015D01*
X243016D01*
X242000Y916031D01*
X240984Y915015D01*
X239968D01*
X240984Y913999D01*
X239968Y912983D01*
X240984D01*
X242000Y911967D01*
X309000Y956968D02*
X310016Y957984D01*
X311032D01*
X310016Y959000D01*
X311032Y960016D01*
X310016D01*
X309000Y961032D01*
X307984Y960016D01*
X306968D01*
X307984Y959000D01*
X306968Y957984D01*
X307984D01*
X309000Y956968D01*
Y935968D02*
X310016Y936984D01*
X311032D01*
X310016Y938000D01*
X311032Y939016D01*
X310016D01*
X309000Y940032D01*
X307984Y939016D01*
X306968D01*
X307984Y938000D01*
X306968Y936984D01*
X307984D01*
X309000Y935968D01*
X255000Y921968D02*
X256016Y922984D01*
X257032D01*
X256016Y924000D01*
X257032Y925016D01*
X256016D01*
X255000Y926032D01*
X253984Y925016D01*
X252968D01*
X253984Y924000D01*
X252968Y922984D01*
X253984D01*
X255000Y921968D01*
X263000Y869968D02*
X264016Y870984D01*
X265032D01*
X264016Y872000D01*
X265032Y873016D01*
X264016D01*
X263000Y874032D01*
X261984Y873016D01*
X260968D01*
X261984Y872000D01*
X260968Y870984D01*
X261984D01*
X263000Y869968D01*
X655610Y725428D02*
X653578Y729492D01*
X657642D01*
X655610Y725428D01*
Y649228D02*
X653578Y653292D01*
X657642D01*
X655610Y649228D01*
X375610Y725428D02*
X373578Y729492D01*
X377642D01*
X375610Y725428D01*
Y573028D02*
X373578Y577092D01*
X377642D01*
X375610Y573028D01*
X635300Y778468D02*
X636316Y779484D01*
X637332D01*
X636316Y780500D01*
X637332Y781516D01*
X636316D01*
X635300Y782532D01*
X634284Y781516D01*
X633268D01*
X634284Y780500D01*
X633268Y779484D01*
X634284D01*
X635300Y778468D01*
X652300Y695968D02*
X653316Y696984D01*
X654332D01*
X653316Y698000D01*
X654332Y699016D01*
X653316D01*
X652300Y700032D01*
X651284Y699016D01*
X650268D01*
X651284Y698000D01*
X650268Y696984D01*
X651284D01*
X652300Y695968D01*
X549300Y657968D02*
X550316Y658984D01*
X551332D01*
X550316Y660000D01*
X551332Y661016D01*
X550316D01*
X549300Y662032D01*
X548284Y661016D01*
X547268D01*
X548284Y660000D01*
X547268Y658984D01*
X548284D01*
X549300Y657968D01*
X577564Y797218D02*
X578580Y798234D01*
X579596D01*
X578580Y799250D01*
X579596Y800266D01*
X578580D01*
X577564Y801282D01*
X576548Y800266D01*
X575532D01*
X576548Y799250D01*
X575532Y798234D01*
X576548D01*
X577564Y797218D01*
X549300Y675218D02*
X550316Y676234D01*
X551332D01*
X550316Y677250D01*
X551332Y678266D01*
X550316D01*
X549300Y679282D01*
X548284Y678266D01*
X547268D01*
X548284Y677250D01*
X547268Y676234D01*
X548284D01*
X549300Y675218D01*
X606300Y664968D02*
X607316Y665984D01*
X608332D01*
X607316Y667000D01*
X608332Y668016D01*
X607316D01*
X606300Y669032D01*
X605284Y668016D01*
X604268D01*
X605284Y667000D01*
X604268Y665984D01*
X605284D01*
X606300Y664968D01*
X554300Y697968D02*
X555316Y698984D01*
X556332D01*
X555316Y700000D01*
X556332Y701016D01*
X555316D01*
X554300Y702032D01*
X553284Y701016D01*
X552268D01*
X553284Y700000D01*
X552268Y698984D01*
X553284D01*
X554300Y697968D01*
X599300Y911967D02*
X600316Y912983D01*
X601332D01*
X600316Y913999D01*
X601332Y915015D01*
X600316D01*
X599300Y916031D01*
X598284Y915015D01*
X597268D01*
X598284Y913999D01*
X597268Y912983D01*
X598284D01*
X599300Y911967D01*
X666300Y956968D02*
X667316Y957984D01*
X668332D01*
X667316Y959000D01*
X668332Y960016D01*
X667316D01*
X666300Y961032D01*
X665284Y960016D01*
X664268D01*
X665284Y959000D01*
X664268Y957984D01*
X665284D01*
X666300Y956968D01*
Y935968D02*
X667316Y936984D01*
X668332D01*
X667316Y938000D01*
X668332Y939016D01*
X667316D01*
X666300Y940032D01*
X665284Y939016D01*
X664268D01*
X665284Y938000D01*
X664268Y936984D01*
X665284D01*
X666300Y935968D01*
X612300Y921968D02*
X613316Y922984D01*
X614332D01*
X613316Y924000D01*
X614332Y925016D01*
X613316D01*
X612300Y926032D01*
X611284Y925016D01*
X610268D01*
X611284Y924000D01*
X610268Y922984D01*
X611284D01*
X612300Y921968D01*
X620300Y869968D02*
X621316Y870984D01*
X622332D01*
X621316Y872000D01*
X622332Y873016D01*
X621316D01*
X620300Y874032D01*
X619284Y873016D01*
X618268D01*
X619284Y872000D01*
X618268Y870984D01*
X619284D01*
X620300Y869968D01*
X95506Y136000D02*
X93475Y140064D01*
X97538D01*
X95506Y136000D01*
X70107D02*
X68074Y140064D01*
X72139D01*
X70107Y136000D01*
X44707D02*
X42674Y140064D01*
X46739D01*
X44707Y136000D01*
X19306D02*
X17275Y140064D01*
X21339D01*
X19306Y136000D01*
X44275Y299000D02*
X45290Y301032D01*
X44275Y303064D01*
X46307Y302048D01*
X48338Y303064D01*
X47323Y301032D01*
X48338Y299000D01*
X46307Y300016D01*
X44275Y299000D01*
X64275D02*
X65290Y301032D01*
X64275Y303064D01*
X66307Y302048D01*
X68338Y303064D01*
X67323Y301032D01*
X68338Y299000D01*
X66307Y300016D01*
X64275Y299000D01*
X124275D02*
X125290Y301032D01*
X124275Y303064D01*
X126306Y302048D01*
X128338Y303064D01*
X127323Y301032D01*
X128338Y299000D01*
X126306Y300016D01*
X124275Y299000D01*
X24274D02*
X25291Y301032D01*
X24274Y303064D01*
X26307Y302048D01*
X28338Y303064D01*
X27322Y301032D01*
X28338Y299000D01*
X26307Y300016D01*
X24274Y299000D01*
X104275D02*
X105290Y301032D01*
X104275Y303064D01*
X106306Y302048D01*
X108338Y303064D01*
X107323Y301032D01*
X108338Y299000D01*
X106306Y300016D01*
X104275Y299000D01*
X84275D02*
X85290Y301032D01*
X84275Y303064D01*
X86306Y302048D01*
X88338Y303064D01*
X87323Y301032D01*
X88338Y299000D01*
X86306Y300016D01*
X84275Y299000D01*
X181791Y71016D02*
Y70000D01*
X183822D01*
Y71016D01*
X184839D01*
Y73048D01*
X183822D01*
Y74064D01*
X181791D01*
Y73048D01*
X180774D01*
Y71016D01*
X181791D01*
X195291Y411016D02*
Y410000D01*
X197323D01*
Y411016D01*
X198339D01*
Y413048D01*
X197323D01*
Y414064D01*
X195291D01*
Y413048D01*
X194275D01*
Y411016D01*
X195291D01*
X425307Y281000D02*
X426323Y282016D01*
X427338D01*
X426323Y283032D01*
X427338Y284048D01*
X426323D01*
X425307Y285064D01*
X424291Y284048D01*
X423274D01*
X424291Y283032D01*
X423274Y282016D01*
X424291D01*
X425307Y281000D01*
X118307Y238000D02*
X119323Y239016D01*
X120338D01*
X119323Y240032D01*
X120338Y241048D01*
X119323D01*
X118307Y242064D01*
X117290Y241048D01*
X116274D01*
X117290Y240032D01*
X116274Y239016D01*
X117290D01*
X118307Y238000D01*
X282306Y269000D02*
X283323Y270016D01*
X284338D01*
X283323Y271032D01*
X284338Y272048D01*
X283323D01*
X282306Y273064D01*
X281290Y272048D01*
X280275D01*
X281290Y271032D01*
X280275Y270016D01*
X281290D01*
X282306Y269000D01*
X298307Y235000D02*
X299322Y236016D01*
X300338D01*
X299322Y237032D01*
X300338Y238048D01*
X299322D01*
X298307Y239064D01*
X297290Y238048D01*
X296275D01*
X297290Y237032D01*
X296275Y236016D01*
X297290D01*
X298307Y235000D01*
X387307Y203000D02*
X388322Y204016D01*
X389338D01*
X388322Y205032D01*
X389338Y206048D01*
X388322D01*
X387307Y207064D01*
X386291Y206048D01*
X385275D01*
X386291Y205032D01*
X385275Y204016D01*
X386291D01*
X387307Y203000D01*
X359306Y8000D02*
X360322Y9016D01*
X361338D01*
X360322Y10032D01*
X361338Y11048D01*
X360322D01*
X359306Y12064D01*
X358290Y11048D01*
X357274D01*
X358290Y10032D01*
X357274Y9016D01*
X358290D01*
X359306Y8000D01*
X304307Y152000D02*
X305322Y153016D01*
X306339D01*
X305322Y154032D01*
X306339Y155048D01*
X305322D01*
X304307Y156064D01*
X303291Y155048D01*
X302274D01*
X303291Y154032D01*
X302274Y153016D01*
X303291D01*
X304307Y152000D01*
X605507Y136000D02*
X603475Y140064D01*
X607538D01*
X605507Y136000D01*
X580107D02*
X578074Y140064D01*
X582138D01*
X580107Y136000D01*
X554706D02*
X552674Y140064D01*
X556739D01*
X554706Y136000D01*
X529306D02*
X527275Y140064D01*
X531339D01*
X529306Y136000D01*
X554274Y299000D02*
X555290Y301032D01*
X554274Y303064D01*
X556306Y302048D01*
X558339Y303064D01*
X557323Y301032D01*
X558339Y299000D01*
X556306Y300016D01*
X554274Y299000D01*
X574274D02*
X575290Y301032D01*
X574274Y303064D01*
X576306Y302048D01*
X578339Y303064D01*
X577323Y301032D01*
X578339Y299000D01*
X576306Y300016D01*
X574274Y299000D01*
X634274D02*
X635290Y301032D01*
X634274Y303064D01*
X636306Y302048D01*
X638339Y303064D01*
X637323Y301032D01*
X638339Y299000D01*
X636306Y300016D01*
X634274Y299000D01*
X534274D02*
X535290Y301032D01*
X534274Y303064D01*
X536306Y302048D01*
X538339Y303064D01*
X537323Y301032D01*
X538339Y299000D01*
X536306Y300016D01*
X534274Y299000D01*
X614274D02*
X615290Y301032D01*
X614274Y303064D01*
X616306Y302048D01*
X618339Y303064D01*
X617323Y301032D01*
X618339Y299000D01*
X616306Y300016D01*
X614274Y299000D01*
X594274D02*
X595290Y301032D01*
X594274Y303064D01*
X596306Y302048D01*
X598339Y303064D01*
X597323Y301032D01*
X598339Y299000D01*
X596306Y300016D01*
X594274Y299000D01*
X691790Y71016D02*
Y70000D01*
X693822D01*
Y71016D01*
X694838D01*
Y73048D01*
X693822D01*
Y74064D01*
X691790D01*
Y73048D01*
X690775D01*
Y71016D01*
X691790D01*
X705291Y411016D02*
Y410000D01*
X707322D01*
Y411016D01*
X708338D01*
Y413048D01*
X707322D01*
Y414064D01*
X705291D01*
Y413048D01*
X704275D01*
Y411016D01*
X705291D01*
X935306Y281000D02*
X936322Y282016D01*
X937338D01*
X936322Y283032D01*
X937338Y284048D01*
X936322D01*
X935306Y285064D01*
X934290Y284048D01*
X933275D01*
X934290Y283032D01*
X933275Y282016D01*
X934290D01*
X935306Y281000D01*
X628307Y238000D02*
X629323Y239016D01*
X630339D01*
X629323Y240032D01*
X630339Y241048D01*
X629323D01*
X628307Y242064D01*
X627290Y241048D01*
X626274D01*
X627290Y240032D01*
X626274Y239016D01*
X627290D01*
X628307Y238000D01*
X792307Y269000D02*
X793323Y270016D01*
X794339D01*
X793323Y271032D01*
X794339Y272048D01*
X793323D01*
X792307Y273064D01*
X791291Y272048D01*
X790275D01*
X791291Y271032D01*
X790275Y270016D01*
X791291D01*
X792307Y269000D01*
X808307Y235000D02*
X809323Y236016D01*
X810339D01*
X809323Y237032D01*
X810339Y238048D01*
X809323D01*
X808307Y239064D01*
X807290Y238048D01*
X806274D01*
X807290Y237032D01*
X806274Y236016D01*
X807290D01*
X808307Y235000D01*
X897307Y203000D02*
X898323Y204016D01*
X899339D01*
X898323Y205032D01*
X899339Y206048D01*
X898323D01*
X897307Y207064D01*
X896291Y206048D01*
X895275D01*
X896291Y205032D01*
X895275Y204016D01*
X896291D01*
X897307Y203000D01*
X869306Y8000D02*
X870322Y9016D01*
X871338D01*
X870322Y10032D01*
X871338Y11048D01*
X870322D01*
X869306Y12064D01*
X868290Y11048D01*
X867274D01*
X868290Y10032D01*
X867274Y9016D01*
X868290D01*
X869306Y8000D01*
X814306Y152000D02*
X815322Y153016D01*
X816339D01*
X815322Y154032D01*
X816339Y155048D01*
X815322D01*
X814306Y156064D01*
X813290Y155048D01*
X812274D01*
X813290Y154032D01*
X812274Y153016D01*
X813290D01*
X814306Y152000D01*
D67*
X233032Y933000D02*
G03*
X233032Y933000I-2032J0D01*
G01*
Y895500D02*
G03*
X233032Y895500I-2032J0D01*
G01*
Y970500D02*
G03*
X233032Y970500I-2032J0D01*
G01*
X58032Y895500D02*
G03*
X58032Y895500I-2032J0D01*
G01*
X23032Y970500D02*
G03*
X23032Y970500I-2032J0D01*
G01*
X233032Y818000D02*
G03*
X233032Y818000I-2032J0D01*
G01*
Y780500D02*
G03*
X233032Y780500I-2032J0D01*
G01*
Y855500D02*
G03*
X233032Y855500I-2032J0D01*
G01*
X58032Y780500D02*
G03*
X58032Y780500I-2032J0D01*
G01*
X23032Y855500D02*
G03*
X23032Y855500I-2032J0D01*
G01*
X590332Y933000D02*
G03*
X590332Y933000I-2032J0D01*
G01*
Y895500D02*
G03*
X590332Y895500I-2032J0D01*
G01*
Y970500D02*
G03*
X590332Y970500I-2032J0D01*
G01*
X415332Y895500D02*
G03*
X415332Y895500I-2032J0D01*
G01*
X380332Y970500D02*
G03*
X380332Y970500I-2032J0D01*
G01*
X590332Y818000D02*
G03*
X590332Y818000I-2032J0D01*
G01*
Y780500D02*
G03*
X590332Y780500I-2032J0D01*
G01*
Y855500D02*
G03*
X590332Y855500I-2032J0D01*
G01*
X415332Y780500D02*
G03*
X415332Y780500I-2032J0D01*
G01*
X380332Y855500D02*
G03*
X380332Y855500I-2032J0D01*
G01*
M02*
